<svg width="43" height="42" viewBox="0 0 43 42" fill="none" xmlns="http://www.w3.org/2000/svg">
<path d="M20.8332 0.50898C20.2948 0.605408 19.5234 0.991123 19.0734 1.38487C17.5707 2.7188 17.4984 5.17773 18.9207 6.60005C19.6439 7.32327 20.4635 7.66077 21.5001 7.66077C22.5368 7.66077 23.3564 7.32327 24.0796 6.60005C25.8073 4.87237 25.2769 1.86702 23.0591 0.814337C22.3278 0.468801 21.6368 0.380408 20.8332 0.50898Z" fill="#001DF3"/>
<path d="M19.5314 8.51257C17.6189 8.80186 15.9876 10.2322 15.4251 12.1206C15.3126 12.4822 15.2805 12.884 15.2725 13.7358C15.2725 14.7483 15.2885 14.8929 15.4251 15.0456L15.5778 15.2144H21.5001H27.4225L27.5751 15.0456C27.7117 14.8929 27.7278 14.7483 27.7278 13.7358C27.7198 12.884 27.6876 12.4822 27.5751 12.1206C27.085 10.4733 25.8153 9.18757 24.1519 8.65721C23.7903 8.54471 23.3564 8.52061 21.7412 8.4965C20.6564 8.48846 19.668 8.4965 19.5314 8.51257Z" fill="#001DF3"/>
<path d="M29.9375 10.3769C29.6643 10.6501 29.6241 10.9715 29.817 11.2608C29.8893 11.3572 30.283 11.7028 30.6929 12.0403C33.9955 14.6921 36.0286 18.6296 36.2536 22.8081C36.2777 23.2903 36.3339 23.7885 36.3741 23.901C36.5188 24.2787 37.0491 24.4313 37.4589 24.2144C37.7563 24.0537 37.8447 23.6599 37.7804 22.7358C37.5473 19.3046 36.4063 16.2269 34.3652 13.5671C33.8188 12.8438 32.4848 11.5019 31.6411 10.8188C31.0304 10.3126 30.8375 10.2081 30.5402 10.176C30.2268 10.1358 30.1625 10.1599 29.9375 10.3769Z" fill="#001DF3"/>
<path d="M10.9652 11.1483C8.53841 13.1572 6.68216 16.0661 5.7902 19.2402C5.35627 20.767 5.07502 23.2581 5.25984 23.8286C5.40449 24.2706 5.91877 24.4474 6.3527 24.2143C6.62591 24.0697 6.69824 23.8126 6.74645 22.784C6.85091 20.8474 7.34109 18.9429 8.19288 17.167C9.12502 15.2304 9.94466 14.1938 12.2348 12.0242C12.4518 11.8233 12.5 11.7108 12.5 11.4536C12.5 11.1884 12.4518 11.092 12.2509 10.9233C11.8572 10.5938 11.5759 10.642 10.9652 11.1483Z" fill="#001DF3"/>
<path d="M6.02346 26.9385C5.07524 27.2599 4.31185 27.943 3.89399 28.8349C2.96185 30.8197 3.99846 33.2063 6.06363 33.8251C6.63417 33.9938 7.67078 34.0019 8.20114 33.8412C9.71988 33.3671 10.7404 32.001 10.7404 30.434C10.7485 28.7947 9.87256 27.5251 8.36185 26.9787C7.70292 26.7376 6.65828 26.7215 6.02346 26.9385Z" fill="#001DF3"/>
<path d="M34.6143 26.9787C33.1196 27.5412 32.2518 28.8108 32.2598 30.434C32.2598 31.7037 32.9429 32.8769 34.0357 33.5117C35.1366 34.1385 36.7116 34.1224 37.7482 33.4635C40.3839 31.7921 39.8536 27.8063 36.8723 26.9063C36.2696 26.7215 35.217 26.7537 34.6143 26.9787Z" fill="#001DF3"/>
<path d="M4.62514 34.942C2.9055 35.4081 1.48318 36.8465 1.04925 38.5581C0.96889 38.8634 0.928711 39.4179 0.928711 40.109C0.928711 41.1375 0.936747 41.1858 1.1296 41.3706L1.32246 41.5715H7.14032C12.7492 41.5715 12.9742 41.5634 13.151 41.4188C13.3359 41.2742 13.3439 41.2018 13.368 40.2295C13.3921 39.4902 13.36 39.0402 13.2635 38.6384C12.9019 37.0554 11.7689 35.7536 10.21 35.1268L9.5671 34.8617L7.3171 34.8456C5.54121 34.8295 4.97068 34.8536 4.62514 34.942Z" fill="#001DF3"/>
<path d="M33.3125 34.95C31.5366 35.4241 30.1465 36.8625 29.7366 38.6384C29.6402 39.0402 29.6081 39.4902 29.6322 40.2295C29.6563 41.2018 29.6643 41.2742 29.8491 41.4188C30.0259 41.5634 30.2509 41.5715 35.8599 41.5715H41.6777L41.8706 41.3706C42.0634 41.1858 42.0715 41.1375 42.0715 40.109C42.0715 39.4099 42.0313 38.8634 41.9509 38.5581C41.5009 36.7983 40.0947 35.392 38.3349 34.942C37.6679 34.7733 33.9554 34.7813 33.3125 34.95Z" fill="#001DF3"/>
<path d="M16.3571 37.6098C16.0679 37.7143 15.875 37.9875 15.875 38.2929C15.875 38.783 16.0518 38.9759 16.6866 39.1607C19.7321 40.0688 22.842 40.1089 25.8795 39.2732C26.7714 39.0321 26.9241 38.9518 27.0366 38.7027C27.2777 38.1723 26.9804 37.6339 26.458 37.6339C26.3054 37.6339 25.7509 37.7464 25.2286 37.875C22.6973 38.5179 20.2866 38.5018 17.675 37.8348C16.5179 37.5375 16.542 37.5455 16.3571 37.6098Z" fill="#001DF3"/>
</svg>
