<svg width="43" height="42" viewBox="0 0 43 42" fill="none" xmlns="http://www.w3.org/2000/svg">
<g opacity="0.7" clip-path="url(#clip0_390_1374)">
<path d="M20.9056 0.613376C20.3592 0.918733 20.2949 1.15177 20.2949 2.70266C20.2949 3.9482 20.311 4.0848 20.4717 4.37409C20.6565 4.70355 21.1467 5.00891 21.5003 5.00891C21.8538 5.00891 22.344 4.70355 22.5288 4.37409C22.6896 4.0848 22.7056 3.9482 22.7056 2.70266C22.7056 1.53748 22.6815 1.31248 22.553 1.07141C22.3762 0.733912 21.878 0.428554 21.5003 0.428554C21.3476 0.428554 21.0744 0.508912 20.9056 0.613376Z" fill="#001DF3"/>
<path d="M15.6341 1.4571C15.2484 1.64995 14.9912 2.05977 14.9912 2.48567C14.9912 2.91156 15.7867 5.02495 16.0519 5.3062C16.4617 5.74013 16.976 5.84459 17.4823 5.58745C17.868 5.39459 18.1251 4.98477 18.1251 4.56692C18.1251 4.22138 17.4742 2.36513 17.185 1.85888C16.8957 1.3687 16.1805 1.18388 15.6341 1.4571Z" fill="#001DF3"/>
<path d="M26.2413 1.47313C25.8877 1.65795 25.7672 1.86688 25.277 3.16063C24.8189 4.37402 24.7788 4.75973 25.06 5.17759C25.51 5.85259 26.3859 5.90884 26.9484 5.30616C27.2136 5.02491 28.0091 2.91152 28.0091 2.48563C28.0091 1.6017 27.0368 1.04723 26.2413 1.47313Z" fill="#001DF3"/>
<path d="M20.2949 7.58837C16.5824 7.92587 13.0869 10.0232 11.0057 13.1732C8.87619 16.4035 8.33779 20.2526 9.49494 23.9973C9.78422 24.9375 10.636 26.6169 11.2708 27.5089C11.9217 28.4089 13.119 29.6303 13.9708 30.241C14.5173 30.6348 14.5815 30.7151 14.5896 30.9401V31.2053H17.4423H20.2949V28.0875V24.9776L19.7485 24.6964C18.6396 24.1339 17.836 23.0491 17.6351 21.8357C17.5146 21.1366 17.5869 20.7509 17.8923 20.3973C18.294 19.9393 19.0333 19.8589 19.4994 20.2205C19.7083 20.3812 19.9735 20.8634 19.9735 21.0803C19.9735 21.683 20.4074 22.366 20.9137 22.575C21.2431 22.7196 21.7574 22.7196 22.0869 22.575C22.5931 22.366 23.0271 21.683 23.0271 21.0803C23.0271 20.8634 23.2923 20.3812 23.5012 20.2205C23.9673 19.8589 24.7065 19.9393 25.1083 20.3973C25.4137 20.7509 25.486 21.1366 25.3655 21.8357C25.1565 23.0571 24.3449 24.158 23.2521 24.6964L22.7056 24.9616V28.0794V31.2053H25.5583H28.411V30.9401C28.419 30.7151 28.4833 30.6348 29.0298 30.241C29.3673 30 29.994 29.4535 30.4119 29.0357C33.4172 26.0464 34.703 21.7071 33.8271 17.4884C33.0717 13.808 30.4923 10.5214 27.0208 8.80979C24.9556 7.78926 22.6414 7.3714 20.2949 7.58837Z" fill="#001DF3"/>
<path d="M14.6137 34.6767C14.6458 35.2232 14.7262 35.8982 14.7905 36.1875C15.3771 38.6785 17.1449 40.5509 19.6119 41.2982C20.2547 41.491 20.4637 41.5151 21.5003 41.5151C22.5369 41.5151 22.7458 41.491 23.3887 41.2982C25.8556 40.5509 27.6235 38.6785 28.2101 36.1875C28.2744 35.8982 28.3547 35.2232 28.3869 34.6767L28.4351 33.6964H21.5003H14.5655L14.6137 34.6767Z" fill="#001DF3"/>
</g>
<defs>
<clipPath id="clip0_390_1374">
<rect width="41.1429" height="41.1429" fill="white" transform="translate(0.928711 0.428589)"/>
</clipPath>
</defs>
</svg>
