<svg width="43" height="42" viewBox="0 0 43 42" fill="none" xmlns="http://www.w3.org/2000/svg">
<g opacity="0.7">
<path d="M24.4891 3.88393C19.5551 4.51072 15.7301 8.10268 14.7739 13.0045C14.565 14.0813 14.5891 16.1143 14.8141 17.1991C15.8025 21.8196 19.3703 25.275 23.9507 26.0223C24.9069 26.183 26.731 26.175 27.6953 26.0143C29.198 25.7652 30.99 25.0259 32.2676 24.1259C33.1034 23.5473 34.4694 22.1411 35.0159 21.3214C35.9239 19.9393 36.5507 18.3884 36.7998 16.9098C36.9605 15.9696 36.9685 14.1295 36.8159 13.1973C36.0685 8.59286 32.581 4.97679 27.9926 4.04465C27.0525 3.85179 25.365 3.77947 24.4891 3.88393ZM22.9382 9.95893C23.9748 10.4732 24.1837 11.783 23.3641 12.5866C22.5364 13.3902 21.2587 13.1813 20.7444 12.1527C20.3989 11.4455 20.4953 10.8268 21.0578 10.2643C21.6123 9.71786 22.2391 9.6134 22.9382 9.95893ZM28.7641 11.0518C29.1739 11.1804 29.7203 11.7107 29.8569 12.1205C29.9855 12.5063 29.9132 13.133 29.7043 13.4705C29.6159 13.6152 28.3623 14.9089 26.9078 16.3554C24.5534 18.6938 24.2319 18.983 23.9105 19.0714C22.9623 19.3286 22.0703 18.8143 21.8132 17.858C21.6926 17.4 21.765 17.0143 22.0623 16.5723C22.1909 16.3795 23.4123 15.1098 24.7703 13.7518C27.6712 10.8589 27.8078 10.7705 28.7641 11.0518ZM30.2668 17.2473C31.2712 17.7777 31.4319 19.1357 30.5882 19.8991C29.5034 20.8795 27.848 20.1482 27.848 18.6938C27.848 17.7536 28.523 17.0705 29.4632 17.0625C29.7846 17.0625 30.0176 17.1188 30.2668 17.2473Z" fill="#001DF3"/>
<path d="M5.30794 10.8509C5.17937 10.9152 4.94634 11.084 4.80973 11.2206C4.27134 11.7268 4.29544 11.092 4.31955 22.8563L4.34366 33.4956L4.54455 33.8572C4.65705 34.05 4.89812 34.3233 5.09098 34.4599C5.44455 34.7009 5.44455 34.7009 6.7383 34.7331L8.04009 34.7572L8.33741 35.3759C9.11687 36.959 10.7481 38.0277 12.6044 38.1643C14.6615 38.309 16.7187 37.1117 17.5946 35.2393L17.8356 34.7411H21.4999H25.1642L25.4053 35.2393C26.2972 37.1277 28.3222 38.309 30.3954 38.1643C32.2517 38.0277 33.8829 36.959 34.6624 35.3759L34.9597 34.7572L36.2615 34.7331C37.5553 34.7009 37.5553 34.7009 37.9088 34.4599C38.1017 34.3233 38.3428 34.05 38.4553 33.8572L38.6562 33.4956L38.6803 29.2849C38.7044 24.6161 38.6963 24.5599 38.1901 24.0777C38.0535 23.9411 37.491 23.6117 36.9526 23.3384L35.9722 22.8483L34.8633 23.9652C32.5731 26.2554 30.1544 27.4045 26.924 27.7581C23.0749 28.1679 18.7838 26.4563 16.2044 23.4831C14.1954 21.1608 13.1267 18.509 13.0062 15.4875C12.9419 13.8724 13.199 12.0643 13.6651 10.8509C13.7213 10.7224 13.4963 10.7143 9.6392 10.7143C6.07134 10.7224 5.51687 10.7384 5.30794 10.8509ZM13.8981 31.6715C14.7579 32.2661 14.8142 33.5197 14.0026 34.2349C12.9258 35.175 11.2946 34.4358 11.2946 32.9974C11.2946 31.6313 12.7651 30.884 13.8981 31.6715ZM30.8615 31.5429C31.9222 32.1054 32.0026 33.6643 30.9981 34.3715C29.9454 35.1188 28.4187 34.2992 28.4106 32.9813C28.4026 31.7679 29.7687 30.9724 30.8615 31.5429Z" fill="#001DF3"/>
</g>
</svg>
