<svg width="261" height="292" viewBox="0 0 261 292" fill="none" xmlns="http://www.w3.org/2000/svg">
<g opacity="0.2">
<g opacity="0.3">
<circle cx="66.7471" cy="225.192" r="13.1" stroke="#1E2662" stroke-width="2"/>
<circle cx="66.7471" cy="225.193" r="21.8333" stroke="#1E2662" stroke-width="2"/>
<circle cx="66.747" cy="225.192" r="30.5667" stroke="#1E2662" stroke-width="2"/>
<circle cx="66.7471" cy="225.193" r="39.3" stroke="#1E2662" stroke-width="2"/>
<circle cx="66.747" cy="225.193" r="48.0333" stroke="#1E2662" stroke-width="2"/>
<circle cx="66.7471" cy="225.192" r="56.7667" stroke="#1E2662" stroke-width="2"/>
<circle cx="66.7471" cy="225.192" r="65.5" stroke="#1E2662" stroke-width="2"/>
</g>
<g opacity="0.3">
<circle cx="88.7471" cy="67.1923" r="13.1" stroke="#1E2662" stroke-width="2"/>
<circle cx="88.7471" cy="67.1927" r="21.8333" stroke="#1E2662" stroke-width="2"/>
<circle cx="88.747" cy="67.1922" r="30.5667" stroke="#1E2662" stroke-width="2"/>
<circle cx="88.7471" cy="67.1926" r="39.3" stroke="#1E2662" stroke-width="2"/>
<circle cx="88.747" cy="67.1925" r="48.0333" stroke="#1E2662" stroke-width="2"/>
<circle cx="88.7471" cy="67.1924" r="56.7667" stroke="#1E2662" stroke-width="2"/>
<circle cx="88.7471" cy="67.1924" r="65.5" stroke="#1E2662" stroke-width="2"/>
</g>
<g opacity="0.3">
<circle cx="193.747" cy="163.192" r="13.1" stroke="#1E2662" stroke-width="2"/>
<circle cx="193.747" cy="163.193" r="21.8333" stroke="#1E2662" stroke-width="2"/>
<circle cx="193.747" cy="163.192" r="30.5667" stroke="#1E2662" stroke-width="2"/>
<circle cx="193.747" cy="163.193" r="39.3" stroke="#1E2662" stroke-width="2"/>
<circle cx="193.747" cy="163.193" r="48.0333" stroke="#1E2662" stroke-width="2"/>
<circle cx="193.747" cy="163.192" r="56.7667" stroke="#1E2662" stroke-width="2"/>
<circle cx="193.747" cy="163.192" r="65.5" stroke="#1E2662" stroke-width="2"/>
</g>
</g>
</svg>
