<svg width="46" height="47" viewBox="0 0 46 47" fill="none" xmlns="http://www.w3.org/2000/svg">
<g clip-path="url(#clip0_101_470)">
<path d="M40.7288 0.725342H2.70602C1.41908 0.725342 0.36618 1.81837 0.36618 3.15437V7.52658C0.36618 8.86258 1.41908 9.95561 2.70602 9.95561H40.6117C41.8987 9.95561 42.9516 8.86258 42.9516 7.52658V3.15437C43.0686 1.81837 42.0156 0.725342 40.7288 0.725342ZM40.7288 25.137H2.70602C1.41908 25.137 0.36618 26.23 0.36618 27.566V31.9382C0.36618 33.2742 1.41908 34.3672 2.70602 34.3672H40.6117C41.8987 34.3672 42.9516 33.2742 42.9516 31.9382V27.566C43.0686 26.23 42.0156 25.137 40.7288 25.137ZM24.1157 37.4035H2.70602C1.41908 37.4035 0.36618 38.4966 0.36618 39.8326V44.2048C0.36618 45.5408 1.41908 46.6338 2.70602 46.6338H24.1157C25.4027 46.6338 26.4556 45.5408 26.4556 44.2048V39.8326C26.4556 38.4966 25.4027 37.4035 24.1157 37.4035ZM43.0686 12.9919H2.70602C1.41908 12.9919 0.36618 14.0849 0.36618 15.4209V19.7931C0.36618 21.1291 1.41908 22.2222 2.70602 22.2222H43.0686C44.3555 22.2222 45.4084 21.1291 45.4084 19.7931V15.4209C45.4084 14.0849 44.3555 12.9919 43.0686 12.9919Z" fill="#14142B"/>
</g>
<defs>
<clipPath id="clip0_101_470">
<rect width="45.0423" height="45.9085" fill="white" transform="translate(0.36618 0.725342)"/>
</clipPath>
</defs>
</svg>
