<svg width="111" height="40" viewBox="0 0 111 40" fill="none" xmlns="http://www.w3.org/2000/svg">
<g clip-path="url(#clip0_101_544)">
<path d="M19.2523 0.19014C8.6196 0.19014 0 8.91613 0 19.6801C0 30.444 8.6196 39.17 19.2523 39.17C29.885 39.17 38.5046 30.444 38.5046 19.6801C38.5036 8.91613 29.884 0.19014 19.2523 0.19014ZM24.5813 28.0594C22.8495 28.0594 21.2419 27.5204 19.9126 26.5995C20.6069 25.9834 21.208 25.2615 21.6915 24.4597C22.5325 24.9815 23.523 25.2834 24.5823 25.2834C27.6395 25.2834 30.1183 22.7741 30.1183 19.6791C30.1183 16.5841 27.6395 14.0748 24.5823 14.0748C23.1223 14.0748 21.795 14.6471 20.8054 15.5823V16.8184C20.8138 16.8069 20.8214 16.7955 20.8298 16.785V24.2987C20.8214 24.3111 20.8129 24.3225 20.8054 24.3349V24.3664H20.7847C19.2974 26.5938 16.7801 28.0594 13.9232 28.0594C9.35146 28.0594 5.64606 24.3073 5.64606 19.6801C5.64606 15.0528 9.3524 11.3007 13.9232 11.3007C15.6551 11.3007 17.2627 11.8397 18.5919 12.7606C17.8977 13.3767 17.2966 14.0986 16.814 14.8995C15.973 14.3776 14.9825 14.0757 13.9232 14.0757C10.866 14.0757 8.38724 16.5851 8.38724 19.6801C8.38724 22.7751 10.866 25.2844 13.9232 25.2844C15.5704 25.2844 17.0501 24.5559 18.0642 23.3988V21.9713V14.5338V14.5147C19.5796 12.5577 21.9361 11.3007 24.5823 11.3007C29.154 11.3007 32.8604 15.0528 32.8604 19.6801C32.8604 24.3073 29.1531 28.0594 24.5813 28.0594Z" fill="#14142B"/>
<path d="M44.3585 19.901C44.7686 20.3524 45.2663 20.6914 45.8523 20.919C46.4374 21.1466 47.094 21.2599 47.8221 21.2599C48.1937 21.2599 48.5399 21.2295 48.8597 21.1685C49.1796 21.1076 49.4646 21.0314 49.7139 20.94C49.9622 20.8485 50.1729 20.7533 50.3451 20.6533C50.5172 20.5533 50.6339 20.4714 50.6941 20.4086C50.7543 20.3448 50.7976 20.2876 50.8258 20.2381C50.8531 20.1886 50.8747 20.1286 50.8916 20.0591C50.9086 19.9905 50.9208 19.9067 50.9283 19.8096C50.9368 19.7124 50.9406 19.5953 50.9406 19.4563C50.9406 19.2572 50.9349 19.0973 50.9236 18.9782C50.9123 18.8592 50.8963 18.7668 50.8747 18.7001C50.8531 18.6335 50.8258 18.5897 50.7929 18.5668C50.7599 18.5449 50.7167 18.5335 50.6621 18.5335C50.5906 18.5335 50.4909 18.5782 50.363 18.6668C50.2341 18.7554 50.0704 18.8554 49.871 18.9658C49.6716 19.0763 49.4317 19.1772 49.1523 19.2696C48.8729 19.361 48.5427 19.4068 48.1599 19.4068C47.7384 19.4068 47.3593 19.3334 47.0226 19.1868C46.6867 19.0401 46.3989 18.8173 46.1609 18.5182C45.9229 18.2192 45.7394 17.8383 45.6106 17.3755C45.4817 16.9127 45.4177 16.366 45.4177 15.7347C45.4177 15.1585 45.4779 14.6405 45.5983 14.1814C45.7187 13.7215 45.8947 13.3301 46.1279 13.0063C46.3603 12.6825 46.6425 12.433 46.9736 12.2587C47.3048 12.0845 47.6801 11.9969 48.1015 11.9969C48.4844 11.9969 48.8146 12.0454 49.0902 12.1416C49.3668 12.2387 49.6048 12.3463 49.8042 12.4654C50.0036 12.5844 50.1664 12.693 50.2924 12.7892C50.4185 12.8863 50.5219 12.9349 50.6047 12.9349C50.6536 12.9349 50.6979 12.9177 50.7355 12.8854C50.774 12.852 50.807 12.7996 50.8343 12.7273C50.8615 12.6549 50.8803 12.5616 50.8916 12.4444C50.902 12.3283 50.9086 12.1873 50.9086 12.0207C50.9086 11.8654 50.9048 11.735 50.8963 11.6302C50.8879 11.5255 50.8756 11.434 50.8596 11.3559C50.8427 11.2788 50.8211 11.215 50.7938 11.1655C50.7665 11.116 50.7157 11.0531 50.6423 10.9788C50.569 10.9036 50.4382 10.8141 50.2529 10.7084C50.0666 10.6036 49.8578 10.5103 49.6245 10.4303C49.3922 10.3503 49.1391 10.2856 48.8654 10.2351C48.5916 10.1856 48.3075 10.1599 48.0122 10.1599C47.2841 10.1599 46.6181 10.2846 46.0141 10.5341C45.4093 10.7836 44.8909 11.1493 44.4592 11.6312C44.0264 12.113 43.6906 12.7082 43.4498 13.4177C43.209 14.1272 43.0886 14.9376 43.0886 15.8518C43.0886 16.7489 43.1977 17.5355 43.4169 18.2116C43.6342 18.8868 43.9484 19.4506 44.3585 19.901Z" fill="#14142B"/>
<path d="M52.7213 21.0438C52.8032 21.0714 52.9142 21.0933 53.0543 21.1104C53.1935 21.1266 53.3666 21.1352 53.5755 21.1352C53.789 21.1352 53.964 21.1266 54.1004 21.1104C54.2368 21.0942 54.3468 21.0714 54.4287 21.0438C54.5105 21.0162 54.5688 20.98 54.6008 20.9362C54.6338 20.8914 54.6497 20.8419 54.6497 20.7866V16.4413H58.6223V20.7866C58.6223 20.8419 58.6402 20.8924 58.675 20.9362C58.7107 20.9809 58.7681 21.0162 58.8481 21.0438C58.9271 21.0714 59.0362 21.0933 59.1764 21.1104C59.3156 21.1266 59.4924 21.1352 59.706 21.1352C59.9139 21.1352 60.086 21.1266 60.2234 21.1104C60.3607 21.0942 60.4698 21.0714 60.5517 21.0438C60.6335 21.0162 60.6918 20.98 60.7276 20.9362C60.7633 20.8914 60.7812 20.8419 60.7812 20.7866V10.6341C60.7812 10.5789 60.7633 10.5293 60.7276 10.4846C60.6918 10.4398 60.6335 10.4046 60.5517 10.376C60.4698 10.3484 60.3598 10.3265 60.2234 10.3094C60.087 10.2922 59.9148 10.2846 59.706 10.2846C59.4924 10.2846 59.3165 10.2932 59.1764 10.3094C59.0371 10.3256 58.9271 10.3484 58.8481 10.376C58.7681 10.4036 58.7107 10.4398 58.675 10.4846C58.6392 10.5293 58.6223 10.5789 58.6223 10.6341V14.5805H54.6497V10.6341C54.6497 10.5789 54.6328 10.5293 54.6008 10.4846C54.5679 10.4398 54.5105 10.4046 54.4287 10.376C54.3468 10.3484 54.2368 10.3265 54.1004 10.3094C53.963 10.2922 53.7881 10.2846 53.5755 10.2846C53.3666 10.2846 53.1935 10.2932 53.0543 10.3094C52.9142 10.3256 52.8041 10.3484 52.7213 10.376C52.6395 10.4036 52.5802 10.4398 52.5454 10.4846C52.5097 10.5293 52.4918 10.5789 52.4918 10.6341V20.7866C52.4918 20.8419 52.5097 20.8924 52.5454 20.9362C52.5812 20.98 52.6395 21.0162 52.7213 21.0438Z" fill="#14142B"/>
<path d="M63.735 21.0847H69.0697C69.1186 21.0847 69.1637 21.0695 69.2051 21.039C69.2465 21.0085 69.2804 20.9599 69.3077 20.8942C69.3349 20.8276 69.3556 20.7409 69.3697 20.6324C69.3829 20.5247 69.3904 20.3905 69.3904 20.2295C69.3904 20.0686 69.3839 19.9343 69.3697 19.8267C69.3556 19.7181 69.3359 19.6315 69.3077 19.5648C69.2804 19.4982 69.2465 19.4496 69.2051 19.4191C69.1637 19.3886 69.1186 19.3734 69.0697 19.3734H65.2448V16.3413H68.4535C68.5024 16.3413 68.5485 16.3279 68.589 16.2994C68.6304 16.2717 68.6642 16.226 68.6915 16.1622C68.7188 16.0984 68.7395 16.0137 68.7536 15.9089C68.7668 15.8042 68.7743 15.6708 68.7743 15.5099C68.7743 15.3547 68.7677 15.2233 68.7536 15.1147C68.7404 15.0071 68.7197 14.9214 68.6915 14.8576C68.6642 14.7938 68.6304 14.7471 68.589 14.7157C68.5485 14.6852 68.5034 14.67 68.4535 14.67H65.2448V12.0464H69.0367C69.0857 12.0464 69.1299 12.0311 69.1684 12.0006C69.207 11.9702 69.2399 11.9216 69.2663 11.8549C69.2936 11.7883 69.3142 11.7016 69.3284 11.5931C69.3415 11.4845 69.3491 11.3531 69.3491 11.1988C69.3491 11.0321 69.3425 10.895 69.3284 10.7874C69.3142 10.6798 69.2945 10.5912 69.2663 10.5217C69.239 10.4522 69.2061 10.4036 69.1684 10.376C69.1299 10.3484 69.0866 10.3341 69.0367 10.3341H63.735C63.5544 10.3341 63.4029 10.3884 63.2797 10.496C63.1564 10.6036 63.0944 10.7798 63.0944 11.0236V20.3952C63.0944 20.639 63.1564 20.8142 63.2797 20.9228C63.402 21.0314 63.5544 21.0847 63.735 21.0847Z" fill="#14142B"/>
<path d="M71.8099 19.901C72.22 20.3524 72.7177 20.6914 73.3037 20.919C73.8888 21.1466 74.5454 21.2599 75.2735 21.2599C75.6451 21.2599 75.9913 21.2295 76.3121 21.1685C76.6319 21.1076 76.9169 21.0314 77.1653 20.94C77.4146 20.8485 77.6243 20.7533 77.7965 20.6533C77.9696 20.5533 78.0853 20.4714 78.1455 20.4086C78.2057 20.3448 78.249 20.2876 78.2772 20.2381C78.3045 20.1886 78.3261 20.1286 78.343 20.0591C78.36 19.9905 78.3722 19.9067 78.3797 19.8096C78.3882 19.7124 78.3919 19.5953 78.3919 19.4563C78.3919 19.2572 78.3863 19.0973 78.3759 18.9782C78.3656 18.8592 78.3487 18.7668 78.327 18.7001C78.3054 18.6335 78.2781 18.5897 78.2443 18.5668C78.2113 18.5449 78.1681 18.5335 78.1135 18.5335C78.042 18.5335 77.9423 18.5782 77.8144 18.6668C77.6855 18.7554 77.5218 18.8554 77.3224 18.9658C77.1229 19.0763 76.8831 19.1772 76.6037 19.2696C76.3252 19.361 75.9941 19.4068 75.6113 19.4068C75.1898 19.4068 74.8107 19.3334 74.4749 19.1868C74.1381 19.0401 73.8512 18.8173 73.6132 18.5182C73.3752 18.2192 73.1918 17.8383 73.0638 17.3755C72.935 16.9127 72.871 16.366 72.871 15.7347C72.871 15.1585 72.9312 14.6405 73.0516 14.1814C73.172 13.7215 73.3479 13.3301 73.5812 13.0063C73.8136 12.6825 74.0958 12.433 74.4269 12.2587C74.758 12.0845 75.1334 11.9969 75.5548 11.9969C75.9377 11.9969 76.2679 12.0454 76.5435 12.1416C76.8191 12.2387 77.0571 12.3463 77.2575 12.4654C77.4569 12.5844 77.6196 12.693 77.7457 12.7892C77.8717 12.8863 77.9752 12.9349 78.0571 12.9349C78.106 12.9349 78.1502 12.9177 78.1888 12.8854C78.2273 12.852 78.2602 12.7996 78.2875 12.7273C78.3148 12.6549 78.3336 12.5616 78.3449 12.4444C78.3553 12.3283 78.3618 12.1873 78.3618 12.0207C78.3618 11.8654 78.3581 11.735 78.3496 11.6302C78.3411 11.5255 78.3289 11.434 78.3129 11.3559C78.296 11.2788 78.2744 11.215 78.2471 11.1655C78.2198 11.116 78.169 11.0531 78.0956 10.9788C78.0222 10.9036 77.8915 10.8141 77.7062 10.7084C77.5199 10.6036 77.3111 10.5103 77.0787 10.4303C76.8464 10.3503 76.5933 10.2856 76.3196 10.2351C76.0458 10.1856 75.7618 10.1599 75.4664 10.1599C74.7383 10.1599 74.0723 10.2846 73.4683 10.5341C72.8635 10.7836 72.3452 11.1493 71.9134 11.6312C71.4807 12.113 71.1448 12.7082 70.904 13.4177C70.6632 14.1272 70.5428 14.9376 70.5428 15.8518C70.5428 16.7489 70.6519 17.5355 70.8711 18.2116C71.0846 18.8868 71.3998 19.4506 71.8099 19.901Z" fill="#14142B"/>
<path d="M80.1727 21.039C80.2545 21.0695 80.3655 21.0933 80.5048 21.1095C80.644 21.1257 80.818 21.1342 81.0259 21.1342C81.2394 21.1342 81.4144 21.1257 81.5508 21.1095C81.6882 21.0933 81.7973 21.0695 81.8791 21.039C81.961 21.0085 82.0193 20.9714 82.0522 20.9266C82.0851 20.8828 82.1011 20.8295 82.1011 20.7686V15.668L85.3098 20.7686C85.3484 20.8466 85.4011 20.9124 85.4697 20.9685C85.5375 21.0238 85.6504 21.0657 85.8065 21.0933C85.9627 21.1209 86.2185 21.1352 86.5741 21.1352C86.799 21.1352 86.9843 21.1266 87.132 21.1104C87.2796 21.0942 87.3963 21.0704 87.481 21.04C87.5656 21.0095 87.623 20.9714 87.6531 20.9238C87.6832 20.8771 87.6983 20.8228 87.6983 20.7619C87.6983 20.7171 87.686 20.6581 87.6616 20.5838C87.6371 20.5086 87.5647 20.3581 87.4443 20.1305L84.2685 15.2709L87.1818 11.4074C87.3192 11.1912 87.4113 11.0331 87.4612 10.9341C87.5101 10.8341 87.5355 10.7379 87.5355 10.6436C87.5355 10.5884 87.5186 10.5389 87.4866 10.4941C87.4537 10.4503 87.3954 10.4122 87.3107 10.3817C87.226 10.3513 87.1122 10.3275 86.9702 10.3113C86.8281 10.2941 86.6475 10.2865 86.4283 10.2865C86.2148 10.2865 86.0398 10.2922 85.9034 10.3027C85.7661 10.3141 85.6541 10.3332 85.5666 10.3608C85.4792 10.3884 85.4077 10.4265 85.3531 10.4732C85.2985 10.5198 85.2524 10.5798 85.2139 10.6512L82.1039 15.2204V10.6427C82.1039 10.5817 82.087 10.5293 82.055 10.4846C82.0221 10.4398 81.9647 10.4046 81.8819 10.376C81.8001 10.3484 81.691 10.3265 81.5536 10.3094C81.4163 10.2922 81.2413 10.2846 81.0287 10.2846C80.8208 10.2846 80.6468 10.2932 80.5076 10.3094C80.3674 10.3256 80.2574 10.3484 80.1755 10.376C80.0937 10.4036 80.0344 10.4398 79.9996 10.4846C79.9639 10.5293 79.946 10.5817 79.946 10.6427V20.7695C79.946 20.8305 79.9639 20.8828 79.9996 20.9276C80.0316 20.9714 80.0909 21.0095 80.1727 21.039Z" fill="#14142B"/>
<path d="M93.5738 21.0847H96.11C97.0507 21.0847 97.8615 20.9809 98.5435 20.7733C99.2246 20.5657 99.8031 20.24 100.279 19.7972C100.755 19.3544 101.12 18.782 101.374 18.0811C101.629 17.3802 101.756 16.5374 101.756 15.5518C101.756 14.6985 101.638 13.9481 101.403 13.3005C101.168 12.652 100.825 12.1082 100.373 11.6683C99.9217 11.2283 99.3666 10.896 98.7072 10.6712C98.0478 10.4474 97.2454 10.3351 96.299 10.3351H93.5738C93.3932 10.3351 93.2418 10.3893 93.1186 10.4969C92.9953 10.6046 92.9342 10.7807 92.9342 11.0245V20.3962C92.9342 20.64 92.9953 20.8152 93.1186 20.9238C93.2418 21.0314 93.3932 21.0847 93.5738 21.0847ZM95.0837 12.0463H96.1749C96.8371 12.0463 97.3714 12.1368 97.7797 12.3168C98.187 12.4968 98.521 12.7472 98.7815 13.0682C99.0412 13.3891 99.2302 13.7691 99.3478 14.2062C99.4654 14.6442 99.5237 15.1175 99.5237 15.627C99.5237 16.247 99.4569 16.7907 99.3224 17.2555C99.1879 17.7211 98.9857 18.1097 98.7147 18.423C98.4438 18.7363 98.1061 18.9706 97.7016 19.1248C97.2962 19.2801 96.7985 19.3572 96.2078 19.3572H95.0837V12.0463Z" fill="#14142B"/>
<path d="M110.857 18.9792C110.847 18.8601 110.83 18.7678 110.808 18.7011C110.787 18.6344 110.759 18.5906 110.726 18.5678C110.694 18.5459 110.649 18.5344 110.596 18.5344C110.524 18.5344 110.425 18.5792 110.297 18.6678C110.168 18.7563 110.004 18.8563 109.805 18.9668C109.605 19.0772 109.365 19.1782 109.086 19.2706C108.807 19.362 108.476 19.4077 108.093 19.4077C107.671 19.4077 107.292 19.3344 106.956 19.1877C106.619 19.0411 106.332 18.8182 106.094 18.5192C105.856 18.2202 105.673 17.8393 105.545 17.3764C105.416 16.9136 105.352 16.367 105.352 15.7356C105.352 15.1595 105.412 14.6414 105.533 14.1824C105.653 13.7224 105.829 13.331 106.063 13.0072C106.295 12.6835 106.577 12.434 106.908 12.2597C107.239 12.0854 107.615 11.9978 108.036 11.9978C108.419 11.9978 108.749 12.0464 109.025 12.1425C109.3 12.2397 109.538 12.3473 109.739 12.4663C109.938 12.5854 110.101 12.6939 110.227 12.7901C110.353 12.8873 110.457 12.9358 110.538 12.9358C110.587 12.9358 110.631 12.9187 110.67 12.8863C110.709 12.853 110.742 12.8006 110.769 12.7282C110.796 12.6558 110.815 12.5625 110.826 12.4454C110.837 12.3292 110.842 12.1883 110.842 12.0216C110.842 11.8664 110.838 11.7359 110.83 11.6312C110.822 11.5264 110.809 11.435 110.793 11.3569C110.776 11.2798 110.755 11.216 110.727 11.1664C110.7 11.1169 110.649 11.0541 110.576 10.9798C110.502 10.9045 110.372 10.815 110.186 10.7093C109.999 10.6046 109.79 10.5112 109.558 10.4313C109.326 10.3513 109.073 10.2865 108.799 10.236C108.525 10.1865 108.241 10.1608 107.946 10.1608C107.218 10.1608 106.552 10.2855 105.948 10.5351C105.343 10.7846 104.825 11.1502 104.393 11.6321C103.961 12.114 103.624 12.7092 103.383 13.4186C103.143 14.1281 103.022 14.9385 103.022 15.8527C103.022 16.7498 103.131 17.5364 103.35 18.2126C103.57 18.8887 103.884 19.4525 104.295 19.9029C104.705 20.3543 105.203 20.6933 105.789 20.9209C106.374 21.1485 107.03 21.2618 107.759 21.2618C108.13 21.2618 108.476 21.2314 108.797 21.1704C109.117 21.1095 109.401 21.0333 109.65 20.9419C109.9 20.8504 110.109 20.7552 110.282 20.6552C110.455 20.5552 110.571 20.4733 110.631 20.4105C110.692 20.3467 110.735 20.2895 110.763 20.24C110.79 20.1905 110.812 20.1305 110.829 20.061C110.845 19.9924 110.858 19.9086 110.866 19.8115C110.874 19.7143 110.878 19.5972 110.878 19.4582C110.873 19.2572 110.869 19.0982 110.857 18.9792Z" fill="#14142B"/>
<path d="M107.544 23.8712H42.4386V24.1578H107.544V23.8712Z" fill="#14142B"/>
<path d="M45.0518 28.7108C44.9521 28.6137 44.8383 28.528 44.7113 28.4565C44.5843 28.3851 44.4554 28.3175 44.3237 28.2556C44.192 28.1927 44.0632 28.1308 43.9362 28.068C43.8092 28.0051 43.6963 27.9356 43.5956 27.8575C43.495 27.7794 43.415 27.6909 43.3548 27.589C43.2946 27.488 43.2636 27.3661 43.2636 27.2252C43.2636 27.129 43.2805 27.0366 43.3144 26.95C43.3482 26.8624 43.399 26.7871 43.4668 26.7224C43.5345 26.6576 43.6191 26.6062 43.7217 26.5691C43.8242 26.5319 43.9437 26.5129 44.081 26.5129C44.2212 26.5129 44.3454 26.53 44.4545 26.5643C44.5636 26.5986 44.6577 26.6367 44.7367 26.6795C44.8157 26.7224 44.8816 26.7605 44.9342 26.7948C44.9869 26.829 45.0255 26.8462 45.0509 26.8462C45.065 26.8462 45.0772 26.8414 45.0876 26.8319C45.0979 26.8224 45.1073 26.809 45.1139 26.7909C45.1214 26.7728 45.1261 26.7519 45.1299 26.7271C45.1337 26.7024 45.1346 26.6748 45.1346 26.6443C45.1346 26.6119 45.1337 26.5833 45.1308 26.5614C45.129 26.5386 45.1252 26.5195 45.1205 26.5033C45.1158 26.4872 45.1101 26.4738 45.1045 26.4624C45.0989 26.4519 45.0847 26.4348 45.0631 26.4129C45.0405 26.39 44.9954 26.3615 44.9267 26.3243C44.858 26.2881 44.78 26.2548 44.6925 26.2253C44.605 26.1958 44.5128 26.1719 44.415 26.1529C44.3171 26.1339 44.2202 26.1243 44.1252 26.1243C43.9343 26.1243 43.7593 26.15 43.6003 26.2024C43.4404 26.2538 43.304 26.3291 43.1902 26.4262C43.0764 26.5243 42.9879 26.6424 42.9249 26.7833C42.8619 26.9233 42.8308 27.0814 42.8308 27.2585C42.8308 27.4404 42.8609 27.5966 42.9221 27.728C42.9823 27.8604 43.0623 27.9747 43.161 28.0728C43.2598 28.1708 43.3717 28.2556 43.4978 28.3289C43.6238 28.4022 43.7518 28.4699 43.8835 28.5318C44.0142 28.5946 44.1431 28.6565 44.2692 28.7194C44.3952 28.7822 44.5072 28.8517 44.6059 28.9279C44.7047 29.0041 44.7847 29.0936 44.8449 29.1946C44.9051 29.2955 44.9352 29.4174 44.9352 29.5584C44.9352 29.6945 44.9117 29.8164 44.8637 29.924C44.8157 30.0316 44.7489 30.1212 44.6624 30.1945C44.5768 30.2678 44.4742 30.3231 44.3557 30.3621C44.2372 30.4011 44.1064 30.4202 43.9653 30.4202C43.7913 30.4202 43.638 30.3992 43.5063 30.3583C43.3746 30.3173 43.2617 30.2726 43.1676 30.224C43.0735 30.1754 42.9964 30.1307 42.9371 30.0897C42.8779 30.0488 42.8318 30.0278 42.7998 30.0278C42.7857 30.0278 42.7725 30.0307 42.7593 30.0364C42.7462 30.0421 42.7368 30.0535 42.7283 30.0697C42.7198 30.0869 42.7133 30.1078 42.7095 30.1335C42.7048 30.1593 42.702 30.1926 42.702 30.2326C42.702 30.2869 42.7076 30.3316 42.7198 30.3688C42.7321 30.4059 42.7499 30.4373 42.7753 30.464C42.8017 30.4907 42.8478 30.524 42.9164 30.563C42.9851 30.6021 43.0698 30.6402 43.1695 30.6783C43.2692 30.7164 43.384 30.7487 43.511 30.7754C43.6389 30.8021 43.7744 30.8154 43.9192 30.8154C44.1309 30.8154 44.3265 30.7859 44.5053 30.7268C44.6849 30.6678 44.8392 30.583 44.969 30.4707C45.0989 30.3592 45.2004 30.2231 45.2729 30.0631C45.3453 29.9031 45.3811 29.7212 45.3811 29.5193C45.3811 29.3403 45.351 29.185 45.2908 29.0546C45.2324 28.9232 45.1525 28.8089 45.0518 28.7108Z" fill="#14142B"/>
<path d="M47.6726 27.7699C47.7027 27.7699 47.7281 27.7547 47.7478 27.7261C47.7676 27.6966 47.7779 27.6528 47.7779 27.5937C47.7779 27.5633 47.7761 27.5366 47.7714 27.5147C47.7667 27.4918 47.7601 27.4737 47.7507 27.4585C47.7413 27.4433 47.73 27.4318 47.7177 27.4252C47.7046 27.4176 47.6905 27.4147 47.6745 27.4147H46.8024V26.63C46.8024 26.6157 46.7987 26.6033 46.7921 26.591C46.7855 26.5795 46.7742 26.5691 46.7582 26.5614C46.7432 26.5529 46.7225 26.5472 46.6952 26.5433C46.6689 26.5395 46.6341 26.5376 46.5927 26.5376C46.5532 26.5376 46.5193 26.5395 46.4929 26.5433C46.4666 26.5472 46.445 26.5529 46.428 26.5614C46.412 26.57 46.4008 26.5795 46.3951 26.591C46.3895 26.6033 46.3867 26.6157 46.3867 26.63V27.4147H45.9154C45.8994 27.4147 45.8843 27.4185 45.8721 27.4252C45.8589 27.4318 45.8486 27.4433 45.8392 27.4585C45.8298 27.4737 45.8222 27.4928 45.8185 27.5147C45.8138 27.5366 45.8109 27.5633 45.8109 27.5937C45.8109 27.6528 45.8204 27.6966 45.8392 27.7261C45.858 27.7556 45.8834 27.7699 45.9154 27.7699H46.3867V29.7583C46.3867 29.9374 46.4026 30.0926 46.4337 30.225C46.4657 30.3573 46.5155 30.4659 46.5851 30.5516C46.6548 30.6373 46.7441 30.7021 46.8542 30.744C46.9633 30.7859 47.0959 30.8078 47.2521 30.8078C47.2982 30.8078 47.3462 30.8049 47.3951 30.7992C47.444 30.7935 47.4901 30.7849 47.5343 30.7744C47.5785 30.764 47.6171 30.7506 47.6509 30.7354C47.6848 30.7202 47.7102 30.703 47.7271 30.6859C47.745 30.6678 47.7572 30.644 47.7657 30.6135C47.7742 30.583 47.7779 30.543 47.7779 30.4935C47.7779 30.463 47.7761 30.4373 47.7723 30.4173C47.7685 30.3973 47.7638 30.3811 47.7582 30.3678C47.7525 30.3545 47.745 30.3459 47.7356 30.3411C47.7262 30.3364 47.7159 30.3345 47.7036 30.3345C47.6858 30.3345 47.6632 30.3402 47.6387 30.3526C47.6143 30.364 47.5851 30.3773 47.5503 30.3916C47.5155 30.4059 47.475 30.4192 47.4299 30.4307C47.3847 30.443 47.3339 30.4487 47.2784 30.4487C47.0969 30.4487 46.9718 30.3849 46.9031 30.2583C46.8344 30.1307 46.7996 29.9459 46.7996 29.7031V27.7709H47.6726V27.7699Z" fill="#14142B"/>
<path d="M50.4627 27.6632C50.3705 27.5642 50.2501 27.488 50.1014 27.4356C49.9528 27.3823 49.7703 27.3557 49.554 27.3557C49.442 27.3557 49.331 27.3661 49.2191 27.3871C49.1071 27.408 49.0037 27.4356 48.9068 27.4699C48.8108 27.5042 48.7243 27.5414 48.6509 27.5813C48.5766 27.6213 48.5249 27.6566 48.4957 27.6851C48.4665 27.7147 48.4487 27.7442 48.4421 27.7737C48.4355 27.8032 48.4317 27.8423 48.4317 27.8918C48.4317 27.9194 48.4336 27.9442 48.4374 27.9642C48.4411 27.9842 48.4468 28.0013 48.4552 28.0137C48.4637 28.027 48.4731 28.0356 48.4844 28.0404C48.4957 28.0451 48.5089 28.047 48.523 28.047C48.5465 28.047 48.5851 28.0299 48.6396 27.9956C48.6942 27.9613 48.7638 27.9232 48.8475 27.8804C48.9312 27.8375 49.0291 27.7994 49.1401 27.7651C49.252 27.7309 49.3771 27.7137 49.5173 27.7137C49.6612 27.7137 49.7835 27.7309 49.8841 27.767C49.9839 27.8023 50.0657 27.8556 50.1287 27.9261C50.1918 27.9966 50.2369 28.0842 50.2651 28.1889C50.2934 28.2937 50.3075 28.4146 50.3075 28.5508V28.826H49.8042C49.5765 28.826 49.3696 28.8479 49.1833 28.8917C48.9971 28.9355 48.8381 29.0003 48.7055 29.0879C48.5728 29.1755 48.4703 29.2841 48.3988 29.4145C48.3273 29.545 48.2906 29.6993 48.2906 29.8755C48.2906 30.0193 48.3151 30.1488 48.364 30.264C48.4129 30.3792 48.4825 30.4773 48.5738 30.5592C48.6641 30.6411 48.7751 30.703 48.9068 30.7468C49.0385 30.7906 49.1871 30.8125 49.3517 30.8125C49.5352 30.8125 49.7129 30.7706 49.8841 30.6849C50.0554 30.6002 50.2115 30.4802 50.3536 30.3249V30.6821C50.3536 30.7059 50.3611 30.724 50.3761 30.7363C50.3912 30.7497 50.4128 30.7592 50.441 30.7649C50.4693 30.7706 50.5031 30.7735 50.5426 30.7735C50.584 30.7735 50.6179 30.7706 50.6423 30.7649C50.6668 30.7592 50.6866 30.7497 50.7016 30.7363C50.7167 30.723 50.7242 30.7049 50.7242 30.6821V28.5203C50.7242 28.3365 50.7044 28.1727 50.6649 28.028C50.6254 27.8832 50.5549 27.7623 50.4627 27.6632ZM50.3046 29.9278C50.1438 30.1069 49.9923 30.2392 49.8493 30.3249C49.7064 30.4106 49.5521 30.4535 49.3865 30.4535C49.1768 30.4535 49.015 30.3992 48.8992 30.2897C48.7845 30.1802 48.7262 30.0335 48.7262 29.8497C48.7262 29.744 48.7469 29.6498 48.7873 29.5669C48.8278 29.4841 48.8898 29.4136 48.9745 29.3545C49.0582 29.2955 49.1626 29.2507 49.2887 29.2203C49.4138 29.1898 49.5606 29.1746 49.728 29.1746H50.3037V29.9278H50.3046Z" fill="#14142B"/>
<path d="M53.614 27.5099C53.6103 27.4966 53.6065 27.4861 53.6018 27.4785C53.5971 27.4699 53.5886 27.4604 53.5745 27.4499C53.5604 27.4395 53.5359 27.4271 53.4993 27.4147C53.4626 27.4014 53.4221 27.3899 53.377 27.3814C53.3318 27.3718 53.2895 27.3652 53.25 27.3614C53.2105 27.3576 53.1757 27.3557 53.1456 27.3557C53.076 27.3557 53.0082 27.3642 52.9414 27.3804C52.8746 27.3966 52.8069 27.428 52.7373 27.4737C52.6677 27.5194 52.5943 27.5842 52.5172 27.6661C52.44 27.749 52.3563 27.8566 52.266 27.9918V27.4861C52.266 27.4718 52.2632 27.4595 52.2575 27.4471C52.2519 27.4356 52.2416 27.4252 52.2284 27.4176C52.2143 27.409 52.1945 27.4033 52.1691 27.3995C52.1437 27.3956 52.1108 27.3937 52.0713 27.3937C52.0318 27.3937 51.9998 27.3956 51.9753 27.3995C51.9509 27.4033 51.9311 27.409 51.9142 27.4176C51.8982 27.4261 51.8869 27.4356 51.8813 27.4471C51.8756 27.4595 51.8728 27.4718 51.8728 27.4861V30.683C51.8728 30.6973 51.8756 30.7106 51.8813 30.7221C51.8869 30.7344 51.8982 30.743 51.9142 30.7506C51.9311 30.7573 51.9518 30.764 51.9791 30.7687C52.0054 30.7735 52.0393 30.7754 52.0788 30.7754C52.1202 30.7754 52.155 30.7735 52.1814 30.7687C52.2086 30.764 52.2293 30.7582 52.2444 30.7506C52.2594 30.743 52.2707 30.7344 52.2773 30.7221C52.2839 30.7106 52.2877 30.6973 52.2877 30.683V28.5213C52.3761 28.3775 52.457 28.2565 52.5303 28.1575C52.6037 28.0585 52.6733 27.9794 52.7392 27.9194C52.806 27.8594 52.869 27.8156 52.9292 27.789C52.9894 27.7613 53.0515 27.748 53.1145 27.748C53.1681 27.748 53.2171 27.7537 53.2613 27.7642C53.3055 27.7747 53.3459 27.7861 53.3836 27.7975C53.4212 27.8099 53.4532 27.8204 53.4814 27.8309C53.5087 27.8413 53.5341 27.847 53.5548 27.847C53.5689 27.847 53.5802 27.8432 53.5877 27.8347C53.5961 27.8261 53.6027 27.8147 53.6084 27.7994C53.614 27.7842 53.6187 27.7642 53.6206 27.7394C53.6225 27.7147 53.6244 27.6851 53.6244 27.6499C53.6244 27.6147 53.6234 27.5861 53.6225 27.5633C53.6197 27.5404 53.6178 27.5223 53.614 27.5099Z" fill="#14142B"/>
<path d="M55.7513 27.7699C55.7814 27.7699 55.8068 27.7547 55.8256 27.7261C55.8454 27.6966 55.8557 27.6528 55.8557 27.5937C55.8557 27.5633 55.8529 27.5366 55.8482 27.5147C55.8435 27.4918 55.8369 27.4737 55.8275 27.4585C55.8181 27.4433 55.8077 27.4318 55.7946 27.4252C55.7814 27.4176 55.7673 27.4147 55.7513 27.4147H54.8793V26.63C54.8793 26.6157 54.8755 26.6033 54.8689 26.591C54.8623 26.5795 54.851 26.5691 54.836 26.5614C54.8209 26.5529 54.8002 26.5472 54.773 26.5433C54.7466 26.5395 54.7118 26.5376 54.6704 26.5376C54.6309 26.5376 54.598 26.5395 54.5707 26.5433C54.5434 26.5472 54.5227 26.5529 54.5058 26.5614C54.4898 26.57 54.4785 26.5795 54.4729 26.591C54.4672 26.6033 54.4644 26.6157 54.4644 26.63V27.4147H53.9931C53.9771 27.4147 53.9621 27.4185 53.9499 27.4252C53.9367 27.4318 53.9254 27.4433 53.9169 27.4585C53.9075 27.4737 53.9 27.4928 53.8962 27.5147C53.8915 27.5366 53.8896 27.5633 53.8896 27.5937C53.8896 27.6528 53.8991 27.6966 53.9179 27.7261C53.9367 27.7556 53.9621 27.7699 53.995 27.7699H54.4663V29.7583C54.4663 29.9374 54.4823 30.0926 54.5133 30.225C54.5453 30.3573 54.5952 30.4659 54.6648 30.5516C54.7344 30.6373 54.8247 30.7021 54.9338 30.744C55.0429 30.7859 55.1756 30.8078 55.3317 30.8078C55.3778 30.8078 55.4258 30.8049 55.4747 30.7992C55.5236 30.7935 55.5697 30.7849 55.6139 30.7744C55.6582 30.764 55.6977 30.7506 55.7306 30.7354C55.7645 30.7202 55.7899 30.703 55.8068 30.6859C55.8247 30.6678 55.8369 30.644 55.8454 30.6135C55.8538 30.583 55.8576 30.543 55.8576 30.4935C55.8576 30.463 55.8557 30.4373 55.8519 30.4173C55.8482 30.3973 55.8435 30.3811 55.8378 30.3678C55.8322 30.3545 55.8247 30.3459 55.8153 30.3411C55.8059 30.3364 55.7955 30.3345 55.7842 30.3345C55.7654 30.3345 55.7438 30.3402 55.7193 30.3526C55.6948 30.364 55.6657 30.3773 55.6309 30.3916C55.5961 30.4059 55.5556 30.4192 55.5105 30.4307C55.4653 30.443 55.4145 30.4487 55.3581 30.4487C55.1765 30.4487 55.0514 30.3849 54.9827 30.2583C54.9141 30.1307 54.8802 29.9459 54.8802 29.7031V27.7709H55.7513V27.7699Z" fill="#14142B"/>
<path d="M60.3296 28.7108C60.2299 28.6137 60.1161 28.528 59.9891 28.4565C59.8621 28.3851 59.7332 28.3175 59.6015 28.2556C59.4699 28.1927 59.341 28.1308 59.214 28.068C59.087 28.0051 58.9741 27.9356 58.8734 27.8575C58.7728 27.7794 58.6928 27.6909 58.6326 27.589C58.5724 27.488 58.5414 27.3661 58.5414 27.2252C58.5414 27.129 58.5583 27.0366 58.5922 26.95C58.626 26.8624 58.6768 26.7871 58.7436 26.7224C58.8114 26.6576 58.896 26.6062 58.9986 26.5691C59.1011 26.5319 59.2206 26.5129 59.3579 26.5129C59.4981 26.5129 59.6222 26.53 59.7314 26.5643C59.8405 26.5986 59.9346 26.6367 60.0136 26.6795C60.0926 26.7224 60.1584 26.7605 60.2111 26.7948C60.2638 26.829 60.3024 26.8462 60.3278 26.8462C60.3419 26.8462 60.3541 26.8414 60.3645 26.8319C60.3748 26.8224 60.3842 26.809 60.3908 26.7909C60.3974 26.7728 60.403 26.7519 60.4068 26.7271C60.4105 26.7024 60.4115 26.6748 60.4115 26.6443C60.4115 26.6119 60.4105 26.5833 60.4077 26.5614C60.4058 26.5386 60.4021 26.5195 60.3974 26.5033C60.3927 26.4872 60.387 26.4738 60.3814 26.4624C60.3757 26.4519 60.3616 26.4348 60.34 26.4129C60.3174 26.39 60.2723 26.3615 60.2036 26.3243C60.1349 26.2881 60.0568 26.2548 59.9694 26.2253C59.8819 26.1958 59.7897 26.1719 59.6919 26.1529C59.594 26.1339 59.4971 26.1243 59.4021 26.1243C59.2112 26.1243 59.0362 26.15 58.8772 26.2024C58.7182 26.2538 58.5809 26.3291 58.4671 26.4262C58.3532 26.5243 58.2648 26.6424 58.2018 26.7833C58.1388 26.9233 58.1077 27.0814 58.1077 27.2585C58.1077 27.4404 58.1378 27.5966 58.199 27.728C58.2592 27.8604 58.3391 27.9747 58.4379 28.0728C58.5367 28.1708 58.6486 28.2556 58.7747 28.3289C58.9007 28.4022 59.0287 28.4699 59.1604 28.5318C59.2921 28.5946 59.4209 28.6565 59.546 28.7194C59.6721 28.7822 59.784 28.8517 59.8828 28.9279C59.9816 29.0041 60.0615 29.0936 60.1218 29.1946C60.182 29.2955 60.2121 29.4174 60.2121 29.5584C60.2121 29.6945 60.1885 29.8164 60.1406 29.924C60.0926 30.0316 60.0258 30.1212 59.9393 30.1945C59.8537 30.2678 59.7511 30.3231 59.6316 30.3621C59.5131 30.4011 59.3833 30.4202 59.2413 30.4202C59.0672 30.4202 58.9139 30.3992 58.7822 30.3583C58.6505 30.3173 58.5376 30.2726 58.4436 30.224C58.3495 30.1754 58.2723 30.1307 58.2131 30.0897C58.1538 30.0488 58.1077 30.0278 58.0757 30.0278C58.0616 30.0278 58.0485 30.0307 58.0353 30.0364C58.0221 30.0421 58.0118 30.0535 58.0042 30.0697C57.9958 30.0869 57.9892 30.1078 57.9854 30.1335C57.9807 30.1593 57.9779 30.1926 57.9779 30.2326C57.9779 30.2869 57.9835 30.3316 57.9958 30.3688C58.008 30.4059 58.0259 30.4373 58.0513 30.464C58.0767 30.4907 58.1237 30.524 58.1924 30.563C58.2611 30.6021 58.3457 30.6402 58.4454 30.6783C58.5451 30.7164 58.659 30.7487 58.7869 30.7754C58.9148 30.8021 59.0503 30.8154 59.1952 30.8154C59.4068 30.8154 59.6025 30.7859 59.7812 30.7268C59.9609 30.6678 60.1152 30.583 60.245 30.4707C60.3748 30.3592 60.4764 30.2231 60.5488 30.0631C60.6213 29.9031 60.657 29.7212 60.657 29.5193C60.657 29.3403 60.6269 29.185 60.5667 29.0546C60.5103 28.9232 60.4294 28.8089 60.3296 28.7108Z" fill="#14142B"/>
<path d="M63.9551 27.8099C63.8318 27.6623 63.6776 27.5499 63.4923 27.4728C63.3069 27.3947 63.0915 27.3566 62.8451 27.3566C62.5873 27.3566 62.3615 27.4004 62.1678 27.4871C61.9749 27.5747 61.8131 27.6966 61.6842 27.8528C61.5554 28.0089 61.4585 28.1946 61.3945 28.4089C61.3305 28.6232 61.2986 28.8574 61.2986 29.1117C61.2986 29.3755 61.3296 29.6126 61.3917 29.8221C61.4538 30.0316 61.546 30.2097 61.6711 30.3573C61.7952 30.5049 61.9505 30.6173 62.1348 30.6963C62.3202 30.7754 62.5356 30.8144 62.782 30.8144C63.0379 30.8144 63.2627 30.7706 63.4556 30.6821C63.6484 30.5935 63.8102 30.4706 63.9391 30.3126C64.068 30.1554 64.1649 29.9688 64.2307 29.7545C64.2956 29.5402 64.3285 29.306 64.3285 29.0517C64.3285 28.7908 64.2966 28.5546 64.2345 28.3451C64.1714 28.1356 64.0783 27.9575 63.9551 27.8099ZM63.8262 29.6278C63.7839 29.7926 63.7199 29.9354 63.6324 30.0554C63.5449 30.1754 63.433 30.2697 63.2957 30.3383C63.1583 30.4068 62.9956 30.4402 62.8065 30.4402C62.6014 30.4402 62.4312 30.404 62.2938 30.3307C62.1565 30.2573 62.0473 30.1592 61.9655 30.0335C61.8846 29.9088 61.8263 29.7631 61.7915 29.5974C61.7567 29.4317 61.7388 29.2565 61.7388 29.0727C61.7388 28.8822 61.7595 28.7041 61.8018 28.5394C61.8432 28.3746 61.9081 28.2318 61.9956 28.1099C62.0831 27.9889 62.195 27.8937 62.3324 27.8251C62.4697 27.7566 62.6325 27.7223 62.8215 27.7223C63.0266 27.7223 63.1978 27.7594 63.3342 27.8337C63.4716 27.908 63.5807 28.008 63.6616 28.1337C63.7434 28.2594 63.8008 28.4051 63.8356 28.5698C63.8704 28.7346 63.8883 28.9079 63.8883 29.0888C63.8883 29.2841 63.8685 29.4631 63.8262 29.6278Z" fill="#14142B"/>
<path d="M69.5296 27.748C69.4469 27.628 69.3377 27.5328 69.2013 27.4623C69.0649 27.3918 68.8984 27.3566 68.7009 27.3566C68.6219 27.3566 68.5419 27.368 68.4601 27.3899C68.3782 27.4128 68.2945 27.449 68.207 27.4994C68.1195 27.5499 68.0274 27.6175 67.9314 27.7004C67.8355 27.7842 67.732 27.887 67.6229 28.0099C67.5881 27.9137 67.542 27.8251 67.4865 27.7451C67.431 27.6651 67.3632 27.5966 67.2842 27.5385C67.2052 27.4804 67.1139 27.4366 67.0105 27.4042C66.907 27.3728 66.7894 27.3566 66.6558 27.3566C66.495 27.3566 66.3332 27.4023 66.1704 27.4947C66.0077 27.5861 65.8355 27.7347 65.654 27.9394V27.4871C65.654 27.4728 65.6512 27.4604 65.6455 27.448C65.6399 27.4366 65.6295 27.4261 65.6164 27.4185C65.6022 27.4099 65.5825 27.4042 65.5571 27.4004C65.5317 27.3966 65.4988 27.3947 65.4593 27.3947C65.4197 27.3947 65.3878 27.3966 65.3633 27.4004C65.3389 27.4042 65.3182 27.4099 65.3022 27.4185C65.2862 27.4271 65.2749 27.4366 65.2692 27.448C65.2636 27.4604 65.2608 27.4728 65.2608 27.4871V30.684C65.2608 30.6982 65.2636 30.7116 65.2692 30.723C65.2749 30.7354 65.2862 30.744 65.3022 30.7516C65.3182 30.7582 65.3398 30.7649 65.3671 30.7697C65.3934 30.7744 65.4273 30.7763 65.4668 30.7763C65.5091 30.7763 65.543 30.7744 65.5693 30.7697C65.5966 30.7649 65.6173 30.7592 65.6323 30.7516C65.6474 30.744 65.6587 30.7354 65.6653 30.723C65.6719 30.7116 65.6756 30.6982 65.6756 30.684V28.3908C65.8525 28.167 66.0162 27.9975 66.1657 27.8823C66.3162 27.767 66.4639 27.709 66.6107 27.709C66.7292 27.709 66.8317 27.7328 66.9192 27.7813C67.0067 27.8299 67.0791 27.8975 67.1356 27.9861C67.193 28.0746 67.2353 28.1803 67.2626 28.3041C67.2908 28.4279 67.3049 28.5651 67.3049 28.7155V30.683C67.3049 30.6973 67.3077 30.7106 67.3134 30.722C67.319 30.7344 67.3303 30.743 67.3463 30.7506C67.3623 30.7573 67.3839 30.7639 67.4112 30.7687C67.4375 30.7735 67.4714 30.7754 67.5109 30.7754C67.5504 30.7754 67.5833 30.7735 67.6106 30.7687C67.637 30.7639 67.6586 30.7582 67.6737 30.7506C67.6887 30.743 67.7 30.7344 67.7066 30.722C67.7132 30.7106 67.7169 30.6973 67.7169 30.683V28.3898C67.8966 28.1661 68.0603 27.9965 68.2108 27.8813C68.3613 27.7661 68.509 27.708 68.6557 27.708C68.7743 27.708 68.8768 27.7318 68.9643 27.7804C69.0518 27.8289 69.1233 27.8966 69.1806 27.9851C69.238 28.0737 69.2794 28.1794 69.3067 28.3032C69.333 28.427 69.3472 28.5641 69.3472 28.7146V30.682C69.3472 30.6963 69.35 30.7097 69.3556 30.7211C69.3613 30.7335 69.3726 30.742 69.3885 30.7497C69.4045 30.7563 69.4262 30.763 69.4534 30.7678C69.4798 30.7725 69.5146 30.7744 69.5569 30.7744C69.5964 30.7744 69.6294 30.7725 69.6566 30.7678C69.683 30.763 69.7046 30.7573 69.7197 30.7497C69.7347 30.742 69.746 30.7335 69.7535 30.7211C69.7601 30.7097 69.7639 30.6963 69.7639 30.682V28.6755C69.7639 28.4965 69.746 28.327 69.7103 28.167C69.6717 28.0089 69.6124 27.868 69.5296 27.748Z" fill="#14142B"/>
<path d="M73.1767 27.7994C73.0686 27.6642 72.9312 27.5566 72.7628 27.4756C72.5954 27.3956 72.3931 27.3557 72.1561 27.3557C71.935 27.3557 71.7347 27.3947 71.554 27.4737C71.3734 27.5528 71.2191 27.6671 71.0912 27.8166C70.9633 27.9661 70.8654 28.148 70.7968 28.3622C70.7281 28.5765 70.6942 28.8193 70.6942 29.0898C70.6942 29.3726 70.7272 29.6212 70.794 29.8355C70.8607 30.0497 70.9576 30.2288 71.0856 30.3745C71.2135 30.5192 71.3715 30.6287 71.5606 30.703C71.7488 30.7773 71.9651 30.8144 72.2097 30.8144C72.3583 30.8144 72.4976 30.803 72.6264 30.7792C72.7553 30.7554 72.8691 30.7297 72.967 30.6992C73.0648 30.6697 73.1438 30.6402 73.204 30.6106C73.2642 30.5811 73.3009 30.5611 73.3122 30.5487C73.3244 30.5373 73.3329 30.5249 73.3404 30.5135C73.347 30.5011 73.3526 30.4887 73.3555 30.4764C73.3592 30.463 73.3621 30.4487 73.3639 30.4335C73.3668 30.4183 73.3677 30.4021 73.3677 30.3859C73.3677 30.3507 73.3658 30.3211 73.363 30.2973C73.3592 30.2735 73.3545 30.2545 73.347 30.2392C73.3404 30.224 73.331 30.2126 73.3188 30.2059C73.3075 30.1992 73.2943 30.1954 73.2802 30.1954C73.2567 30.1954 73.2181 30.2088 73.1636 30.2345C73.109 30.2602 73.0394 30.2897 72.9538 30.3211C72.8691 30.3526 72.7685 30.3821 72.6518 30.4078C72.5352 30.4335 72.4035 30.4468 72.2577 30.4468C72.0507 30.4468 71.8767 30.4164 71.7347 30.3554C71.5926 30.2945 71.4778 30.2069 71.3894 30.0916C71.301 29.9774 71.238 29.8402 71.1994 29.6802C71.1608 29.5202 71.142 29.3412 71.142 29.1431H73.2953C73.3376 29.1431 73.3799 29.1269 73.4241 29.0955C73.4684 29.0641 73.4909 29.006 73.4909 28.9203V28.8355C73.4909 28.6375 73.4655 28.4499 73.4157 28.2708C73.3639 28.0918 73.2849 27.9347 73.1767 27.7994ZM71.1401 28.7974C71.1467 28.6556 71.1721 28.5203 71.2163 28.3889C71.2605 28.2584 71.3236 28.1432 71.4064 28.0442C71.4891 27.9451 71.5898 27.8661 71.7102 27.8061C71.8297 27.7461 71.9689 27.7166 72.1269 27.7166C72.4345 27.7166 72.6678 27.8118 72.8287 28.0023C72.9895 28.1927 73.0657 28.4575 73.0592 28.7974H71.1401Z" fill="#14142B"/>
<path d="M75.8267 27.7699C75.8568 27.7699 75.8822 27.7547 75.9019 27.7261C75.9217 27.6966 75.932 27.6528 75.932 27.5937C75.932 27.5633 75.9292 27.5366 75.9245 27.5147C75.9198 27.4918 75.9132 27.4737 75.9038 27.4585C75.8944 27.4433 75.884 27.4318 75.8709 27.4252C75.8577 27.4176 75.8436 27.4147 75.8276 27.4147H74.9556V26.63C74.9556 26.6157 74.9518 26.6033 74.9452 26.591C74.9386 26.5795 74.9273 26.5691 74.9123 26.5614C74.8972 26.5529 74.8766 26.5472 74.8493 26.5433C74.8229 26.5395 74.7881 26.5376 74.7467 26.5376C74.7072 26.5376 74.6743 26.5395 74.647 26.5433C74.6197 26.5472 74.5991 26.5529 74.5821 26.5614C74.5661 26.57 74.5548 26.5795 74.5483 26.591C74.5426 26.6033 74.5398 26.6157 74.5398 26.63V27.4147H74.0685C74.0525 27.4147 74.0375 27.4185 74.0252 27.4252C74.0121 27.4318 74.0008 27.4433 73.9923 27.4585C73.9829 27.4737 73.9763 27.4928 73.9716 27.5147C73.9669 27.5366 73.965 27.5633 73.965 27.5937C73.965 27.6528 73.9744 27.6966 73.9932 27.7261C74.0121 27.7556 74.0375 27.7699 74.0704 27.7699H74.5417V29.7583C74.5417 29.9374 74.5577 30.0926 74.5887 30.225C74.6197 30.3573 74.6705 30.4659 74.7402 30.5516C74.8098 30.6373 74.8991 30.7021 75.0092 30.744C75.1183 30.7859 75.2509 30.8078 75.4071 30.8078C75.4532 30.8078 75.5021 30.8049 75.5501 30.7992C75.599 30.7935 75.6451 30.7849 75.6893 30.7744C75.7335 30.764 75.773 30.7506 75.806 30.7354C75.8398 30.7202 75.8652 30.703 75.8831 30.6859C75.9 30.6678 75.9132 30.644 75.9217 30.6135C75.9301 30.583 75.9339 30.543 75.9339 30.4935C75.9339 30.463 75.932 30.4373 75.9282 30.4173C75.9245 30.3973 75.9198 30.3811 75.9141 30.3678C75.9085 30.3545 75.901 30.3459 75.8916 30.3411C75.8822 30.3364 75.8718 30.3345 75.8596 30.3345C75.8408 30.3345 75.8191 30.3402 75.7947 30.3526C75.7702 30.364 75.7401 30.3773 75.7053 30.3916C75.6705 30.4059 75.63 30.4192 75.5849 30.4307C75.5397 30.443 75.4889 30.4487 75.4334 30.4487C75.2519 30.4487 75.1268 30.3849 75.0581 30.2583C74.9894 30.1307 74.9556 29.9459 74.9556 29.7031V27.7709H75.8267V27.7699Z" fill="#14142B"/>
<path d="M79.074 27.748C78.9874 27.628 78.8717 27.5328 78.7306 27.4623C78.5886 27.3918 78.4136 27.3566 78.2066 27.3566C78.0345 27.3566 77.8623 27.4023 77.6902 27.4928C77.518 27.5832 77.3459 27.7251 77.1738 27.9185V25.9215C77.1738 25.9072 77.17 25.8948 77.1634 25.8824C77.1568 25.871 77.1455 25.8605 77.1305 25.8529C77.1154 25.8443 77.0947 25.8386 77.0675 25.8348C77.0411 25.831 77.0063 25.8291 76.9649 25.8291C76.9254 25.8291 76.8925 25.831 76.8652 25.8348C76.8379 25.8386 76.8172 25.8443 76.8003 25.8529C76.7843 25.8615 76.773 25.871 76.7664 25.8824C76.7608 25.8948 76.758 25.9072 76.758 25.9215V30.684C76.758 30.6982 76.7608 30.7116 76.7664 30.723C76.7721 30.7354 76.7834 30.744 76.8003 30.7516C76.8163 30.7582 76.8379 30.7649 76.8652 30.7697C76.8915 30.7744 76.9254 30.7763 76.9649 30.7763C77.0063 30.7763 77.0411 30.7744 77.0675 30.7697C77.0947 30.7649 77.1154 30.7592 77.1305 30.7516C77.1455 30.744 77.1568 30.7354 77.1634 30.723C77.17 30.7116 77.1738 30.6982 77.1738 30.684V28.3908C77.3506 28.167 77.519 27.9975 77.6799 27.8823C77.8407 27.767 78.0016 27.709 78.1615 27.709C78.2875 27.709 78.3967 27.7328 78.4917 27.7813C78.5857 27.8299 78.6629 27.8975 78.7231 27.9861C78.7833 28.0746 78.8294 28.1803 78.8595 28.3041C78.8896 28.4279 78.9046 28.5889 78.9046 28.786V30.683C78.9046 30.6973 78.9084 30.7106 78.915 30.722C78.9216 30.7344 78.9329 30.743 78.9479 30.7506C78.963 30.7573 78.9837 30.764 79.0109 30.7687C79.0373 30.7735 79.0721 30.7754 79.1135 30.7754C79.153 30.7754 79.1859 30.7735 79.2132 30.7687C79.2405 30.764 79.2612 30.7582 79.2762 30.7506C79.2913 30.743 79.3025 30.7344 79.3091 30.722C79.3157 30.7106 79.3195 30.6973 79.3195 30.683V28.747C79.3195 28.5213 79.2997 28.328 79.2621 28.168C79.2235 28.0089 79.1605 27.868 79.074 27.748Z" fill="#14142B"/>
<path d="M80.6807 26.1234C80.5762 26.1234 80.5038 26.1434 80.4643 26.1833C80.4248 26.2233 80.405 26.2995 80.405 26.4129C80.405 26.5262 80.4248 26.6024 80.4624 26.6405C80.501 26.6795 80.5706 26.6985 80.6731 26.6985C80.7776 26.6985 80.85 26.6786 80.8895 26.6386C80.929 26.5986 80.9488 26.5224 80.9488 26.409C80.9488 26.2957 80.929 26.2195 80.8914 26.1814C80.8537 26.1424 80.7832 26.1234 80.6807 26.1234Z" fill="#14142B"/>
<path d="M80.8425 27.4185C80.8274 27.4099 80.8067 27.4042 80.7794 27.4004C80.7531 27.3966 80.7183 27.3947 80.6769 27.3947C80.6374 27.3947 80.6045 27.3966 80.5772 27.4004C80.5499 27.4042 80.5292 27.4099 80.5123 27.4185C80.4963 27.4271 80.485 27.4366 80.4794 27.448C80.4737 27.4604 80.4709 27.4728 80.4709 27.4871V30.6839C80.4709 30.6982 80.4737 30.7116 80.4794 30.723C80.485 30.7354 80.4963 30.7439 80.5123 30.7516C80.5283 30.7582 80.5499 30.7649 80.5772 30.7697C80.6035 30.7744 80.6374 30.7763 80.6769 30.7763C80.7192 30.7763 80.7531 30.7744 80.7794 30.7697C80.8058 30.7649 80.8274 30.7592 80.8425 30.7516C80.8575 30.7439 80.8688 30.7354 80.8763 30.723C80.8829 30.7116 80.8867 30.6982 80.8867 30.6839V27.4871C80.8867 27.4728 80.8829 27.4604 80.8763 27.448C80.8688 27.4366 80.8585 27.4261 80.8425 27.4185Z" fill="#14142B"/>
<path d="M84.3644 27.748C84.2769 27.628 84.1622 27.5328 84.0211 27.4623C83.879 27.3918 83.7041 27.3566 83.4971 27.3566C83.325 27.3566 83.1519 27.4023 82.9769 27.4947C82.8029 27.5861 82.6241 27.7347 82.4426 27.9394V27.4871C82.4426 27.4728 82.4398 27.4604 82.4341 27.448C82.4285 27.4366 82.4181 27.4261 82.405 27.4185C82.3909 27.4099 82.3711 27.4042 82.3457 27.4004C82.3203 27.3966 82.2874 27.3947 82.2479 27.3947C82.2084 27.3947 82.1764 27.3966 82.1519 27.4004C82.1275 27.4042 82.1068 27.4099 82.0908 27.4185C82.0748 27.4271 82.0635 27.4366 82.0578 27.448C82.0522 27.4604 82.0494 27.4728 82.0494 27.4871V30.684C82.0494 30.6982 82.0522 30.7116 82.0578 30.723C82.0635 30.7354 82.0748 30.744 82.0908 30.7516C82.1068 30.7582 82.1284 30.7649 82.1557 30.7697C82.182 30.7744 82.2159 30.7763 82.2554 30.7763C82.2968 30.7763 82.3316 30.7744 82.3579 30.7697C82.3843 30.7649 82.4059 30.7592 82.421 30.7516C82.436 30.744 82.4473 30.7354 82.4539 30.723C82.4614 30.7116 82.4642 30.6982 82.4642 30.684V28.3908C82.6411 28.167 82.8095 27.9975 82.9703 27.8823C83.1312 27.767 83.292 27.709 83.452 27.709C83.578 27.709 83.6871 27.7328 83.7821 27.7813C83.8762 27.8299 83.9533 27.8975 84.0135 27.9861C84.0737 28.0746 84.1198 28.1803 84.1499 28.3041C84.18 28.4279 84.1951 28.5889 84.1951 28.786V30.683C84.1951 30.6973 84.1989 30.7106 84.2055 30.722C84.212 30.7344 84.2233 30.743 84.2384 30.7506C84.2534 30.7573 84.2741 30.7639 84.3014 30.7687C84.3277 30.7735 84.3625 30.7754 84.4039 30.7754C84.4434 30.7754 84.4764 30.7735 84.5036 30.7687C84.5309 30.7639 84.5516 30.7582 84.5667 30.7506C84.5817 30.743 84.593 30.7344 84.5996 30.722C84.6062 30.7106 84.6099 30.6973 84.6099 30.683V28.747C84.6099 28.5213 84.5902 28.328 84.5526 28.168C84.514 28.0089 84.451 27.868 84.3644 27.748Z" fill="#14142B"/>
<path d="M88.1799 27.4128H87.2486C87.1809 27.3966 87.1075 27.3823 87.0275 27.3718C86.9466 27.3614 86.862 27.3557 86.7707 27.3557C86.5986 27.3557 86.4405 27.3823 86.2957 27.4356C86.1508 27.489 86.0276 27.5642 85.9241 27.6632C85.8206 27.7623 85.7397 27.8832 85.6814 28.0251C85.6231 28.168 85.5939 28.328 85.5939 28.507C85.5939 28.6556 85.6127 28.7822 85.6504 28.8889C85.687 28.9946 85.7397 29.0927 85.8074 29.1822C85.7284 29.2717 85.6607 29.3726 85.6052 29.4841C85.5497 29.5955 85.5215 29.725 85.5215 29.8707C85.5215 29.9697 85.5497 30.0631 85.6052 30.1497C85.6607 30.2373 85.7482 30.3107 85.8667 30.3726C85.7924 30.4364 85.7265 30.4983 85.6692 30.5602C85.6118 30.6211 85.5647 30.6849 85.5262 30.7516C85.4876 30.8173 85.4594 30.8868 85.4406 30.9601C85.4218 31.0335 85.4124 31.1106 85.4124 31.1935C85.4124 31.3134 85.4368 31.4258 85.4876 31.5296C85.5375 31.6334 85.6184 31.7229 85.7284 31.8001C85.8385 31.8763 85.9805 31.9363 86.1546 31.9801C86.3276 32.0239 86.5374 32.0458 86.7839 32.0458C87.0426 32.0458 87.2646 32.0172 87.4508 31.9591C87.6371 31.901 87.7895 31.8239 87.9099 31.7258C88.0294 31.6277 88.1178 31.5144 88.1752 31.3849C88.2326 31.2554 88.2608 31.1201 88.2608 30.9782C88.2608 30.8411 88.2326 30.723 88.177 30.6211C88.1215 30.5202 88.0454 30.4345 87.9503 30.3649C87.8544 30.2954 87.7443 30.243 87.6173 30.2078C87.4903 30.1726 87.3549 30.1526 87.211 30.1478L86.3559 30.1126C86.2204 30.1078 86.1113 30.0745 86.0257 30.0135C85.941 29.9526 85.8987 29.8764 85.8987 29.7878C85.8987 29.7079 85.9137 29.6374 85.9438 29.5755C85.9739 29.5145 86.0125 29.4603 86.0586 29.4126C86.131 29.4717 86.2308 29.5212 86.3587 29.5612C86.4866 29.6012 86.6211 29.6212 86.7632 29.6212C86.9372 29.6212 87.0971 29.5955 87.2411 29.5431C87.385 29.4917 87.5101 29.4164 87.6145 29.3193C87.7189 29.2212 87.7998 29.1022 87.8572 28.9603C87.9146 28.8193 87.9428 28.6575 87.9428 28.4765C87.9428 28.3441 87.9231 28.2194 87.8854 28.1004C87.8469 27.9813 87.7791 27.8708 87.6813 27.7699H88.1799C88.2128 27.7699 88.2391 27.7566 88.2608 27.7309C88.2815 27.7051 88.2918 27.6585 88.2918 27.5928C88.2918 27.5337 88.2833 27.489 88.2655 27.4585C88.2476 27.428 88.2194 27.4128 88.1799 27.4128ZM85.9062 30.8373C85.9373 30.7821 85.9796 30.7249 86.0332 30.6659C86.0868 30.6068 86.1555 30.5449 86.2392 30.4783L87.1573 30.5097C87.3671 30.5164 87.5336 30.5611 87.6578 30.644C87.782 30.7268 87.845 30.8459 87.845 31.0011C87.845 31.0906 87.8271 31.1763 87.7923 31.2592C87.7575 31.342 87.6992 31.4144 87.6183 31.4782C87.5364 31.542 87.4301 31.5934 87.2984 31.6315C87.1667 31.6706 87.004 31.6896 86.8083 31.6896C86.4989 31.6896 86.2571 31.6448 86.084 31.5553C85.9109 31.4658 85.8244 31.3344 85.8244 31.1601C85.8244 31.1058 85.83 31.0525 85.8423 30.9992C85.8535 30.9468 85.8752 30.8925 85.9062 30.8373ZM87.4678 28.7813C87.4377 28.8765 87.3916 28.9603 87.3314 29.0317C87.2712 29.1041 87.194 29.1612 87.099 29.2031C87.005 29.245 86.8949 29.2669 86.7698 29.2669C86.5327 29.2669 86.3483 29.1993 86.2166 29.0641C86.085 28.9289 86.0191 28.7432 86.0191 28.5079C86.0191 28.3994 86.0342 28.2975 86.0643 28.2003C86.0944 28.1042 86.1395 28.0185 86.2007 27.9461C86.2609 27.8728 86.338 27.8156 86.4311 27.7728C86.5243 27.7309 86.6324 27.709 86.7557 27.709C86.9974 27.709 87.1846 27.7775 87.3154 27.9137C87.4471 28.0499 87.5129 28.2394 87.5129 28.4822C87.5129 28.587 87.4979 28.686 87.4678 28.7813Z" fill="#14142B"/>
<path d="M93.4769 26.5557C93.4901 26.5471 93.5023 26.5357 93.5117 26.5205C93.5212 26.5052 93.5277 26.4852 93.5324 26.4624C93.5371 26.4386 93.539 26.4119 93.539 26.3814C93.539 26.3481 93.5371 26.3195 93.5324 26.2948C93.5277 26.27 93.5202 26.2491 93.5117 26.2329C93.5023 26.2167 93.4911 26.2043 93.4769 26.1957C93.4628 26.1872 93.4478 26.1833 93.4318 26.1833H90.3124C90.2936 26.1833 90.2776 26.1872 90.2654 26.1957C90.2522 26.2043 90.2419 26.2167 90.2325 26.2329C90.2231 26.2491 90.2165 26.27 90.2118 26.2948C90.2071 26.3195 90.2052 26.3481 90.2052 26.3814C90.2052 26.4119 90.2071 26.4395 90.2118 26.4624C90.2165 26.4862 90.2231 26.5052 90.2325 26.5205C90.2419 26.5357 90.2532 26.5471 90.2654 26.5557C90.2776 26.5643 90.2936 26.5681 90.3124 26.5681H91.6595V30.6839C91.6595 30.6982 91.6633 30.7116 91.6699 30.723C91.6764 30.7354 91.6877 30.7439 91.7047 30.7516C91.7207 30.7582 91.7432 30.7649 91.7715 30.7697C91.7997 30.7744 91.8335 30.7763 91.8721 30.7763C91.9116 30.7763 91.9455 30.7744 91.9737 30.7697C92.001 30.7649 92.0236 30.7592 92.0405 30.7516C92.0565 30.7439 92.0678 30.7354 92.0753 30.723C92.0819 30.7116 92.0856 30.6982 92.0856 30.6839V26.5681H93.4327C93.4478 26.5681 93.4628 26.5643 93.4769 26.5557Z" fill="#14142B"/>
<path d="M95.9613 27.8099C95.8381 27.6623 95.6838 27.5499 95.4985 27.4728C95.3132 27.3947 95.0978 27.3566 94.8513 27.3566C94.5926 27.3566 94.3669 27.4004 94.174 27.4871C93.9812 27.5747 93.8194 27.6966 93.6905 27.8528C93.5616 28.0089 93.4647 28.1946 93.4008 28.4089C93.3368 28.6232 93.3048 28.8574 93.3048 29.1117C93.3048 29.3755 93.3359 29.6126 93.3979 29.8221C93.46 30.0316 93.5522 30.2097 93.6764 30.3573C93.8006 30.5049 93.9558 30.6173 94.1401 30.6963C94.3255 30.7754 94.5409 30.8144 94.7873 30.8144C95.0432 30.8144 95.268 30.7706 95.4609 30.6821C95.6537 30.5935 95.8155 30.4706 95.9444 30.3126C96.0733 30.1554 96.1711 29.9688 96.236 29.7545C96.3009 29.5402 96.3338 29.306 96.3338 29.0517C96.3338 28.7908 96.3019 28.5546 96.2398 28.3451C96.1777 28.1356 96.0846 27.9575 95.9613 27.8099ZM95.8325 29.6278C95.7911 29.7926 95.7262 29.9354 95.6387 30.0554C95.5512 30.1754 95.4392 30.2697 95.3019 30.3383C95.1646 30.4068 95.0018 30.4402 94.8137 30.4402C94.6086 30.4402 94.4374 30.404 94.301 30.3307C94.1637 30.2573 94.0545 30.1592 93.9727 30.0335C93.8918 29.9088 93.8335 29.7631 93.7987 29.5974C93.7639 29.4317 93.746 29.2565 93.746 29.0727C93.746 28.8822 93.7667 28.7041 93.809 28.5394C93.8504 28.3746 93.9153 28.2318 94.0028 28.1099C94.0903 27.9889 94.2022 27.8937 94.3396 27.8251C94.4769 27.7566 94.6397 27.7223 94.8287 27.7223C95.0338 27.7223 95.2041 27.7594 95.3414 27.8337C95.4788 27.908 95.5879 28.008 95.6697 28.1337C95.7506 28.2594 95.8089 28.4051 95.8437 28.5698C95.8785 28.7346 95.8964 28.9079 95.8964 29.0888C95.8955 29.2841 95.8748 29.4631 95.8325 29.6278Z" fill="#14142B"/>
<path d="M99.7702 25.872C99.7552 25.8653 99.7345 25.8596 99.7072 25.8548C99.6809 25.85 99.646 25.8481 99.6047 25.8481C99.5651 25.8481 99.5322 25.85 99.505 25.8548C99.4777 25.8596 99.457 25.8653 99.44 25.872C99.424 25.8786 99.4128 25.8891 99.4071 25.9005C99.4015 25.9129 99.3987 25.9253 99.3987 25.9396V27.8651C99.2453 27.6975 99.0892 27.5718 98.9311 27.4852C98.7731 27.3995 98.5981 27.3566 98.4081 27.3566C98.187 27.3566 97.9933 27.3975 97.8258 27.4804C97.6584 27.5623 97.5172 27.6804 97.4034 27.8337C97.2896 27.987 97.2031 28.1727 97.1447 28.3899C97.0864 28.6079 97.0573 28.8517 97.0573 29.1231C97.0573 29.3536 97.0808 29.5726 97.1269 29.7783C97.173 29.985 97.2473 30.164 97.3479 30.3173C97.4495 30.4706 97.5803 30.5916 97.7402 30.6811C97.9011 30.7706 98.0948 30.8154 98.3234 30.8154C98.5351 30.8154 98.7307 30.763 98.9095 30.6582C99.0882 30.5535 99.2622 30.4087 99.4297 30.2249V30.684C99.4297 30.7001 99.4335 30.7144 99.4419 30.7259C99.4504 30.7382 99.4617 30.7478 99.4767 30.7544C99.4918 30.7611 99.5115 30.7668 99.536 30.7706C99.5604 30.7744 99.5915 30.7763 99.6282 30.7763C99.663 30.7763 99.6921 30.7744 99.7157 30.7706C99.7392 30.7668 99.758 30.7621 99.773 30.7544C99.7881 30.7478 99.7984 30.7382 99.8041 30.7259C99.8097 30.7144 99.8126 30.7001 99.8126 30.684V25.9396C99.8126 25.9253 99.8088 25.9129 99.8022 25.9005C99.7966 25.8891 99.7853 25.8796 99.7702 25.872ZM99.3987 29.7726C99.2961 29.9002 99.2002 30.0059 99.1108 30.0926C99.0205 30.1783 98.9349 30.2488 98.8502 30.303C98.7665 30.3573 98.6856 30.3964 98.6056 30.4192C98.5266 30.443 98.4448 30.4545 98.3611 30.4545C98.1936 30.4545 98.0544 30.4154 97.9425 30.3364C97.8305 30.2573 97.7411 30.1526 97.6734 30.0221C97.6057 29.8916 97.5586 29.7421 97.5304 29.5755C97.5031 29.4079 97.489 29.2365 97.489 29.0603C97.489 28.8955 97.505 28.7327 97.5379 28.5727C97.5699 28.4127 97.6226 28.2689 97.695 28.1423C97.7675 28.0146 97.8597 27.9127 97.9744 27.8347C98.0883 27.7575 98.2256 27.7185 98.3865 27.7185C98.5633 27.7185 98.7326 27.7747 98.8944 27.888C99.0562 28.0013 99.2246 28.1651 99.3987 28.3794V29.7726Z" fill="#14142B"/>
<path d="M102.936 27.6632C102.843 27.5642 102.723 27.488 102.574 27.4356C102.426 27.3823 102.243 27.3557 102.027 27.3557C101.915 27.3557 101.804 27.3661 101.692 27.3871C101.58 27.408 101.476 27.4356 101.38 27.4699C101.284 27.5042 101.197 27.5414 101.123 27.5813C101.049 27.6213 100.997 27.6566 100.968 27.6851C100.939 27.7147 100.921 27.7442 100.914 27.7737C100.908 27.8032 100.904 27.8423 100.904 27.8918C100.904 27.9194 100.906 27.9442 100.909 27.9642C100.913 27.9842 100.919 28.0013 100.927 28.0137C100.936 28.027 100.945 28.0356 100.956 28.0404C100.968 28.0451 100.981 28.047 100.995 28.047C101.019 28.047 101.057 28.0299 101.112 27.9956C101.166 27.9613 101.236 27.9232 101.32 27.8804C101.403 27.8375 101.501 27.7994 101.613 27.7651C101.725 27.7309 101.85 27.7137 101.99 27.7137C102.134 27.7137 102.256 27.7309 102.357 27.767C102.457 27.8023 102.539 27.8556 102.602 27.9261C102.665 27.9966 102.71 28.0842 102.738 28.1889C102.766 28.2937 102.78 28.4146 102.78 28.5508V28.826H102.277C102.05 28.826 101.843 28.8479 101.656 28.8917C101.47 28.9355 101.311 29.0003 101.178 29.0879C101.046 29.1755 100.943 29.2841 100.872 29.4145C100.799 29.545 100.764 29.6993 100.764 29.8755C100.764 30.0193 100.788 30.1488 100.837 30.264C100.886 30.3792 100.955 30.4773 101.047 30.5592C101.137 30.6411 101.249 30.703 101.38 30.7468C101.511 30.7906 101.66 30.8125 101.825 30.8125C102.009 30.8125 102.186 30.7706 102.357 30.6849C102.528 30.6002 102.684 30.4802 102.827 30.3249V30.6821C102.827 30.7059 102.834 30.724 102.849 30.7363C102.864 30.7497 102.886 30.7592 102.914 30.7649C102.942 30.7706 102.976 30.7735 103.015 30.7735C103.056 30.7735 103.09 30.7706 103.114 30.7649C103.139 30.7592 103.159 30.7497 103.174 30.7363C103.189 30.723 103.196 30.7049 103.196 30.6821V28.5203C103.196 28.3365 103.176 28.1727 103.137 28.028C103.093 27.8842 103.027 27.7623 102.936 27.6632ZM102.777 29.9278C102.616 30.1069 102.464 30.2392 102.32 30.3249C102.177 30.4106 102.023 30.4535 101.859 30.4535C101.649 30.4535 101.487 30.3992 101.371 30.2897C101.256 30.1802 101.198 30.0335 101.198 29.8497C101.198 29.744 101.219 29.6498 101.259 29.5669C101.3 29.4841 101.362 29.4136 101.447 29.3545C101.53 29.2955 101.635 29.2507 101.761 29.2203C101.887 29.1898 102.034 29.1746 102.201 29.1746H102.777V29.9278Z" fill="#14142B"/>
<path d="M106.547 27.4023C106.518 27.3975 106.481 27.3956 106.437 27.3956C106.391 27.3956 106.35 27.3975 106.318 27.4013C106.286 27.4052 106.26 27.4118 106.239 27.4223C106.22 27.4328 106.204 27.4547 106.192 27.488L105.222 30.2792H105.209L104.222 27.488C104.215 27.4718 104.206 27.4575 104.199 27.4461C104.191 27.4347 104.178 27.4252 104.16 27.4175C104.143 27.4109 104.119 27.4052 104.089 27.4013C104.059 27.3975 104.017 27.3956 103.967 27.3956C103.918 27.3956 103.878 27.3975 103.85 27.4013C103.821 27.4052 103.8 27.4128 103.787 27.4242C103.774 27.4356 103.767 27.4518 103.767 27.4718C103.767 27.4918 103.773 27.5185 103.784 27.5518L104.933 30.6706C104.937 30.6868 104.947 30.7039 104.961 30.7201C104.975 30.7363 104.991 30.7487 105.01 30.7554L104.563 31.8896C104.551 31.9181 104.547 31.9419 104.549 31.9619C104.551 31.9819 104.56 31.9981 104.575 32.0115C104.59 32.0248 104.612 32.0334 104.64 32.0381C104.667 32.0429 104.703 32.0448 104.745 32.0448C104.825 32.0448 104.885 32.0362 104.922 32.0181C104.959 32 104.984 31.9791 104.996 31.9524L105.435 30.7544L106.615 27.5509C106.626 27.5204 106.633 27.4947 106.633 27.4747C106.633 27.4547 106.626 27.4385 106.612 27.4271C106.598 27.4147 106.576 27.4071 106.547 27.4023Z" fill="#14142B"/>
<path d="M107.167 30.1011C107.053 30.1011 106.974 30.123 106.93 30.1678C106.886 30.2126 106.863 30.3049 106.863 30.444C106.863 30.5801 106.885 30.6706 106.928 30.7144C106.971 30.7582 107.047 30.7801 107.157 30.7801C107.27 30.7801 107.349 30.7573 107.394 30.7125C107.438 30.6678 107.46 30.5754 107.46 30.4373C107.46 30.3011 107.439 30.2107 107.395 30.1668C107.352 30.123 107.276 30.1011 107.167 30.1011Z" fill="#14142B"/>
</g>
<defs>
<clipPath id="clip0_101_544">
<rect width="110.873" height="38.9789" fill="white" transform="translate(0 0.19014)"/>
</clipPath>
</defs>
</svg>
