<svg width="162" height="40" viewBox="0 0 162 40" fill="none" xmlns="http://www.w3.org/2000/svg">
<path d="M55.3396 13.4545H52.7776V26.8465H55.3396V13.4545Z" fill="#14142B"/>
<path d="M65.2548 22.095C65.2548 23.9433 64.0844 24.7737 62.5259 24.7737C60.9675 24.7737 59.9259 23.9433 59.9259 22.1887V17.4161H57.364V22.7929C57.364 25.47 59.0162 27.0356 61.7642 27.0356C63.4912 27.0356 64.4565 26.3893 65.1038 25.6591H65.2532L65.4759 26.8482H67.8327V17.4161H65.2548V22.095Z" fill="#14142B"/>
<path d="M90.3858 24.9805C88.5108 24.9805 87.4533 24.1129 87.2863 22.8495H95.4173C95.4549 22.5868 95.4735 22.3216 95.473 22.0562C95.4555 18.6634 92.9286 17.2271 90.2251 17.2271C87.0875 17.2271 84.7292 19.1335 84.7292 22.2081C84.7292 25.1308 86.9953 27.0356 90.3921 27.0356C93.2339 27.0356 95.1263 25.7544 95.5175 23.7914H92.9858C92.6694 24.5653 91.7597 24.9805 90.3858 24.9805ZM90.2267 19.2838C91.8615 19.2838 92.8077 20.0189 92.9572 21.061H87.342C87.5821 20.0625 88.5299 19.2838 90.2188 19.2838H90.2267Z" fill="#14142B"/>
<path d="M99.8256 18.77H99.6665L99.4248 17.4112H97.0967V26.8482H99.6586V22.7929C99.6586 20.9624 100.697 19.9445 102.629 19.9445C102.98 19.9396 103.331 19.971 103.676 20.0383V17.4161H103.318C101.61 17.4161 100.549 17.7747 99.8256 18.77Z" fill="#14142B"/>
<path d="M116.255 23.9045H116.107L113.915 18.0009H111.279L109.125 23.8867H108.958L106.916 17.4161H104.372L107.51 26.8482H110.296L112.524 20.8299H112.672L114.863 26.8482H117.667L120.804 17.4161H118.26L116.255 23.9045Z" fill="#14142B"/>
<path d="M131.001 24.1016V20.9446C131.001 18.379 128.865 17.2287 126.21 17.2287C123.388 17.2287 121.625 18.5874 121.383 20.6215H123.945C124.131 19.7345 124.874 19.245 126.21 19.245C127.545 19.245 128.436 19.7539 128.436 20.7911V21.0319L124.258 21.355C122.328 21.5069 120.919 22.3745 120.919 24.2228C120.919 26.1276 122.534 27.0324 124.91 27.0324C126.828 27.0324 127.997 26.4895 128.713 25.6704H128.84C129.242 26.5913 130.058 26.8449 130.945 26.8449H132.022V24.924H131.78C131.241 24.924 131.001 24.6606 131.001 24.1016ZM128.438 23.1015C128.438 24.5927 126.688 25.0823 125.189 25.0823C124.168 25.0823 123.5 24.8189 123.5 24.1016C123.5 23.4553 124.075 23.1403 124.931 23.0644L128.439 22.801L128.438 23.1015Z" fill="#14142B"/>
<path d="M140.473 17.4161L137.483 24.2454H137.316L134.29 17.4161H131.523L135.848 26.8482H138.913L143.219 17.4161H140.473Z" fill="#14142B"/>
<path d="M151.409 23.7914C151.091 24.5653 150.183 24.9805 148.809 24.9805C146.934 24.9805 145.876 24.1129 145.709 22.8495H153.84C153.878 22.5868 153.896 22.3216 153.896 22.0562C153.879 18.6634 151.352 17.2271 148.648 17.2271C145.511 17.2271 143.154 19.1335 143.154 22.2081C143.154 25.1308 145.418 27.0356 148.815 27.0356C151.657 27.0356 153.549 25.7544 153.941 23.7914H151.409ZM148.642 19.2838C150.277 19.2838 151.223 20.0189 151.372 21.061H145.759C146.002 20.0625 146.947 19.2838 148.635 19.2838H148.642Z" fill="#14142B"/>
<path d="M48.6143 16.7214C48.6143 15.8909 49.19 15.5339 49.9327 15.5339C50.2781 15.5371 50.6215 15.5876 50.9536 15.6841L51.3814 13.797C50.7613 13.5743 50.1086 13.4596 49.4508 13.4578C47.5568 13.4578 46.0349 14.4772 46.0349 16.5889V17.4161H43.8245V19.4825H46.0349V26.8482H48.6143V19.4809H51.5023V17.4161H48.6143V16.7214Z" fill="#14142B"/>
<path d="M73.486 14.7567H71.1006L70.967 17.4161H68.9506V19.4825H70.9193V24.1323C70.9193 25.7156 71.7145 27.0404 74.0999 27.0404C74.7183 27.0404 75.3348 26.9711 75.9382 26.8336V24.848C75.5903 24.9272 75.2356 24.9716 74.8791 24.9805C73.5989 24.9805 73.4876 24.2454 73.4876 23.6783V19.4776H76.032V17.4161H73.486V14.7567Z" fill="#14142B"/>
<path d="M81.5312 14.7567H79.1537L79.0201 17.4161H76.9989V19.4825H78.9676V24.1323C78.9676 25.7156 79.7628 27.0404 82.1482 27.0404C82.7652 27.0385 83.3801 26.9675 83.9817 26.8288V24.848C83.6338 24.9272 83.2791 24.9716 82.9226 24.9805C81.6425 24.9805 81.5312 24.2454 81.5312 23.6783V19.4776H84.0835V17.4161H81.5312V14.7567Z" fill="#14142B"/>
<path d="M8.16281 13.0975C8.16281 11.5836 8.59854 10.2911 9.51294 9.36212L11.1032 10.9778C9.33324 12.7695 10.879 18.3402 15.9185 23.465C20.9581 28.5898 26.4445 30.1586 28.2128 28.3636L29.8031 29.9793C26.8198 33.0102 20.0246 30.8598 14.3362 25.079C10.3908 21.069 8.16281 16.5194 8.16281 13.0975Z" fill="#14142B"/>
<path d="M18.191 31.372C16.7009 31.372 15.4287 30.9293 14.5127 30.0003L16.103 28.3847C17.8698 30.1796 23.353 28.6092 28.3973 23.486C33.4416 18.3629 34.9842 12.7921 33.2174 10.9972L34.8077 9.38153C37.7926 12.4125 35.6744 19.3161 29.9844 25.0952C26.0374 29.1101 21.5592 31.372 18.191 31.372Z" fill="#14142B"/>
<path d="M30.5108 22.7832C29.5455 19.9591 27.5736 16.9411 24.9576 14.285C19.2692 8.50422 12.474 6.35219 9.49069 9.38474C9.27918 9.60124 9.46206 10.136 9.90097 10.5819C10.3399 11.0278 10.8663 11.212 11.0778 10.9971C12.8461 9.20217 18.3294 10.7726 23.3721 15.8974C25.7575 18.3208 27.5354 21.027 28.3925 23.5313C29.1431 25.7269 29.07 27.4977 28.1954 28.3863C27.9823 28.6011 28.1667 29.1375 28.604 29.5818C29.0414 30.0261 29.5693 30.2135 29.7824 29.9971C31.3107 28.4444 31.5699 25.8788 30.5108 22.7832Z" fill="#14142B"/>
<path d="M34.8045 9.38473C33.273 7.82888 30.7509 7.56553 27.7008 8.64316C24.9226 9.62223 21.9504 11.6272 19.336 14.2833C13.6476 20.0625 11.5294 26.9661 14.5127 29.9987C14.7258 30.2135 15.2522 30.0277 15.6911 29.5834C16.13 29.1391 16.3129 28.6027 16.0998 28.3862C14.3282 26.5913 15.8788 21.0206 20.9231 15.8958C23.3085 13.4723 25.9722 11.666 28.4371 10.7952C30.5982 10.0342 32.3412 10.1069 33.2174 10.9955C33.4289 11.2104 33.9569 11.0246 34.3942 10.5787C34.8315 10.1328 35.016 9.59961 34.8045 9.38473Z" fill="#14142B"/>
</svg>
