<svg width="91" height="27" viewBox="0 0 91 27" fill="none" xmlns="http://www.w3.org/2000/svg">
<g clip-path="url(#clip0_101_473)">
<path d="M26.0802 14.6519H19.5912H19.5786L19.5455 14.6868L19.5628 14.7153L19.4682 14.7486L19.4161 14.8199H19.3404L19.3057 14.831V14.8516L19.2662 14.8975V14.9308L19.2852 14.9451L19.2378 15.0164L19.1937 15.0734V15.1479L19.1527 15.2366L19.0517 15.384L18.9917 15.4093H18.957L18.9712 15.4252V15.4679L18.9523 15.4965L18.8923 15.6819L18.8466 15.7991V15.8641L18.9255 15.9322L18.9838 15.9988H19.0217L19.058 16.1017L19.0422 16.135L19.0185 16.1271L18.9854 16.1493L18.9681 16.2174V16.3204L19.0091 16.3616V16.4282L18.9712 16.4598L18.9807 16.5216L19.0107 16.5961H18.9949L19.0122 16.631L19.0233 16.6848L19.0564 16.7134L19.028 16.7593L19.0548 16.791L19.0832 16.875L19.0738 16.9178L19.1732 17.0128L19.2457 17.0239L19.3057 17.0746V17.1032L19.3262 17.1158L19.3167 17.1824L19.301 17.2157L19.3167 17.2283L19.2584 17.3107V17.3408L19.2694 17.3614V17.3789L19.2473 17.3995L19.2599 17.4993L19.2915 17.5595L19.2757 17.5769V17.6482L19.2915 17.6657V17.7354L19.2615 17.7639L19.2726 17.8384L19.252 17.9778H19.241L19.2568 18.0016V18.1267H19.2142V18.1426L19.2284 18.1632H19.2836L19.2994 18.1759L19.312 18.2836L19.2836 18.3248L19.2536 18.3407L19.271 18.366V18.3929H19.2347L19.1952 18.4341L19.2063 18.4484L19.2189 18.4373H19.2536L19.2284 18.4738V18.5308H19.1937L19.1321 18.6084V18.6433L19.0769 18.7194H19.0312V18.7716L18.845 18.8731H18.8182L18.804 18.9127L18.6257 19.0077H18.5579V19.022L18.4758 19.06L18.3638 19.1345L18.337 19.1155V19.1503L18.2692 19.2343L18.2345 19.2502L18.2155 19.2042L18.2029 19.2771L18.1713 19.2866L18.1603 19.3278L18.0483 19.3959V19.4245L18.0199 19.4498L17.9931 19.4577V19.4973H17.9205L17.7627 19.5972V19.6606L17.7138 19.697H17.6476L17.6192 19.7334L17.5671 19.7002H17.5371V19.7429L17.5639 19.7746V19.819L17.5434 19.8475V19.8887L17.5135 19.9331L17.5939 20.0424V20.0804L17.5592 20.109L17.586 20.1216L17.616 20.1708V20.2373L17.6491 20.2991L17.6349 20.4734L17.6507 20.5352H17.6712V20.4861L17.7028 20.4195V20.4782H17.7154V20.5542L17.6933 20.5827V20.6588L17.7059 20.6699L17.6728 20.7586V20.8062L17.6476 20.8378V20.8949H17.6318L17.6428 20.944L17.6854 20.9186L17.6949 20.9503L17.6602 21.0026L17.6428 21.0755L17.5419 21.1833L17.3604 21.2657L17.1159 21.3148L17.0212 21.4051L16.9502 21.4225L16.9281 21.4558L16.8934 21.4843L16.8729 21.554H16.8445L16.8177 21.5715L16.8303 21.5873L16.8572 21.638V21.6887L16.8824 21.6554L16.9218 21.6681L16.9345 21.6206H16.9534V21.6444L16.9423 21.7236L16.9139 21.7695V21.8266L16.8808 21.8709H16.8966L16.8635 21.9723L16.854 22.0595L16.813 22.1435L16.7862 22.2512L16.7451 22.3003L16.7325 22.3495L16.6584 22.4366H16.6331L16.6173 22.4604L16.5606 22.4873L16.5337 22.519L16.4659 22.5634L16.4328 22.6299L16.3775 22.6933V22.7202L16.346 22.7804H16.2923L16.2498 22.8628L16.1393 23.0704L16.0494 23.1544L16.0352 23.2336L15.9831 23.2558L15.9342 23.3144H15.9058L15.8932 23.3366L15.6013 23.625H15.5666V23.6392L15.5193 23.6931L15.3284 23.8167L15.2874 23.8611L15.2195 23.8817V23.8991L15.1123 23.9276L15.0523 23.9657H14.9892L14.9576 23.9419H14.8725L14.803 23.9641L14.7731 24.0148L14.8141 24.0496V24.0655H14.7163L14.6595 24.037H14.6137L14.5743 24.0766L14.5916 24.1114L14.5743 24.1289L14.4402 24.1003L14.4023 24.0702L14.2729 24.0385L14.1893 24.0544V24.075L14.1452 24.0908L14.0805 24.056H13.9306L13.8864 24.0766L13.8738 24.1241L13.8438 24.1098L13.8091 24.1194L13.7776 24.1447L13.7618 24.1669H13.6955L13.6513 24.1859L13.5693 24.1558L13.503 24.1796L13.4904 24.1986L13.4226 24.1843L13.3626 24.2525L13.3121 24.262L13.2948 24.3032L13.2648 24.2921L13.238 24.3047L13.0992 24.2398L13.0708 24.2556V24.1891L13.0187 24.1606L12.9777 24.1811L12.9524 24.1701L12.9745 24.151L12.9603 24.0924L12.8956 24.0813L12.8483 24.1225V24.1732L12.8136 24.1463V24.0892L12.8325 24.0417L12.8199 23.972L12.8578 23.9086L12.8089 23.8199L12.76 23.7755L12.7142 23.7042V23.6313L12.7442 23.6044L12.771 23.6329H12.7962L12.8294 23.5965L12.8452 23.5109L12.8152 23.4158V23.3731L12.7363 23.24V23.1782L12.659 23.0767L12.6227 22.9183L12.5564 22.7535V22.6743L12.4965 22.5032L12.4066 22.4366L12.3908 22.3463L12.2961 22.2782L12.2804 22.2385L12.2141 22.172L12.1463 22.0373L12.0958 21.9676V21.8598L12.0516 21.8107V21.7537L12.0816 21.7315L12.0563 21.6808L12.0185 21.6602L11.998 21.5144L11.9648 21.4716L12.0043 21.4463L11.979 21.3655L11.9885 21.2466L11.9049 21.0264V20.8109L11.8654 20.6667L11.9001 20.6509V20.5352L11.7534 20.3213V20.2421L11.613 20.0424L11.5925 19.9172L11.4537 19.6003L11.3653 19.4419L11.2075 19.2723L11.1918 19.0331V19.0046L11.2044 18.9158V18.7796L11.217 18.6908V18.5894L11.2943 18.4959L11.3101 18.3898L11.3779 18.2995V18.0745L11.4032 18.0539V17.9604L11.5609 17.8241V17.756L11.684 17.6625H11.7171L11.8276 17.4549V17.2093L11.7929 17.1665V17.1206L11.6872 16.9463V16.8734L11.6446 16.8053V16.7039L11.5941 16.6785L11.6824 16.5644L11.695 16.4535L11.6114 16.3347V16.116L11.4537 15.9417V15.9021L11.4237 15.8657L11.5041 15.8213L11.4521 15.8039H11.3716L11.3574 15.7706L11.3432 15.7373L11.3748 15.6787L11.3558 15.5979L11.3211 15.5614L11.2896 15.525L11.2943 15.4648L11.2501 15.4157V15.365L11.1665 15.3111L11.1365 15.281L11.0813 15.2271L11.0687 15.2144L11.0198 15.1954L11.0166 15.1479L10.9157 15.0988L10.8889 15.037L10.7626 14.9356L10.6869 14.8547L10.7074 14.8405L10.6364 14.7803L10.6065 14.7153L10.5639 14.6725V14.587L10.5134 14.522V14.4776L10.4818 14.4523L10.4234 14.3287V14.3002L10.4913 14.3223L10.5449 14.278L10.5575 14.1195L10.5654 14.0419L10.597 14.0736L10.72 14.0435L10.6333 14.0229L10.5781 13.9341L10.638 13.9246V13.8581V13.8422L10.5686 13.8058L10.638 13.6727L10.7264 13.5729L10.7058 13.5238L10.7169 13.5127L10.7611 13.4699L10.72 13.4271L10.7579 13.3289L10.7484 13.2211L10.698 13.1498V13.0706L10.7169 13.0341L10.6743 12.9676L10.5923 13.0025L10.567 12.9739H10.5181L10.485 12.8012L10.4408 12.825L10.4029 12.8076L10.3824 12.8202L10.3351 12.7711L10.3067 12.8503L10.2357 12.8646L10.19 12.8377L10.0606 12.8852L10.0322 12.8678L9.97697 12.901L9.70719 12.9169L9.60622 12.8884L9.53364 12.8234L9.50209 12.7252L9.46423 12.7061V12.6127L9.39481 12.4764L9.28122 12.3655L9.07612 12.2561L8.98777 12.2926L8.87891 12.2704H8.86787L8.6754 12.3354L8.576 12.3227H8.54603L8.39615 12.4162H8.37249L8.21472 12.4352L8.0822 12.5002L7.93705 12.6222L7.76824 12.638L7.52686 12.7537L7.418 12.7046L7.26023 12.684L7.24603 12.6586L7.20659 12.5841L7.15295 12.5968L7.14033 12.6665L7.01885 12.6127L6.87844 12.6586H6.50927L6.40356 12.6729V12.7014L6.20951 12.7711L6.189 12.7996H6.12747L6.02966 12.8836L6.00442 12.8741L5.72832 12.7711L5.51534 12.6127H5.45697L5.28342 12.4384H5.2708L5.16668 12.3686H5.12408L5.05308 12.2657L5.00733 12.2451L5.02784 12.2054H5.01995L4.98367 12.1642H4.87796L4.72966 12.0866L4.66656 12.0708L4.68233 12.0359L4.64131 11.9915L4.60661 11.9567L4.63027 11.9091V11.8965L4.57347 11.9171L4.51037 11.8489V11.7856L4.48197 11.6968H4.42833L4.40782 11.6525L4.44568 11.5811L4.40624 11.559V11.5162L4.43622 11.4639L4.3952 11.4306L4.31947 11.391L4.29738 11.3054H4.23901L4.21377 11.2801V11.2357L4.23586 11.2135L4.19484 11.1866L4.16959 11.2231L4.127 11.2056H4.06389L4.00078 11.1185L4.02603 11.0155L3.98185 10.9664L3.91559 10.9854L3.90139 10.9695V10.922L3.78307 10.9347L3.84933 10.8634H3.81778L3.83355 10.838L3.80831 10.8095H3.76256L3.7452 10.7857H3.8793L3.90297 10.7683L3.82882 10.7113L3.76098 10.7255L3.68998 10.7509H3.65843L3.64265 10.7113H3.58586L3.53537 10.6606L3.58586 10.6209H3.54799H3.45491L3.43125 10.5782V10.5243L3.40601 10.4942L3.45334 10.5069L3.48331 10.5164L3.54326 10.4783L3.4486 10.4451L3.3855 10.4783L3.3713 10.4577L3.39812 10.4276V10.3436L3.36656 10.3025L3.41547 10.2533L3.47227 10.3262H3.54799L3.59059 10.2866L3.52749 10.304L3.45491 10.2676L3.44229 10.2248L3.4344 10.2026L3.47227 10.1741L3.40601 10.1266H3.42809V10.0695L3.37603 10.0616L3.3145 9.95386L3.21984 9.87622L3.39496 9.71777L3.46753 9.58626L3.47858 9.49435L3.49435 9.38027L3.53853 9.20597L3.60637 9.1109L3.6253 8.90967L3.57008 8.61971L3.49278 8.49295L3.52433 8.46918H3.56377L3.58428 8.37411L3.56377 8.31231L3.60006 8.27587L3.5196 8.15545L3.48647 8.18238L3.45965 8.17604L3.43598 8.10791L3.37445 8.17604V8.0683L3.40601 8.00175V7.99066V7.89876L3.43598 7.83854V7.76883L3.47542 7.72604H3.51013L3.59848 7.56759L3.64739 7.54858L3.61268 7.52323V7.49629L3.72469 7.34735V7.30457L3.79411 7.14611L3.83513 7.12393L3.96608 7.00192L3.97554 6.92111L4.14751 6.67076L4.10333 6.59154L4.17906 6.54717L4.19799 6.49171L4.39204 6.3903H4.44253V6.27464L4.55139 6.11619L4.61765 6.02111L4.89059 5.97041L5.08464 5.79928H5.17299L5.25345 5.71214L5.27238 5.63449L5.4475 5.43485L5.46643 5.35404L5.43488 5.31442L5.41121 5.29066L5.4475 5.18608L5.40175 5.09259V5.03238L5.47432 4.88344L5.58633 4.78203V4.7139L5.54216 4.61724L5.66837 4.52534L5.70781 4.46513L5.77565 4.44295L5.88609 4.36847H5.93026L6.00757 4.28608L6.11012 4.25122L6.17165 4.20844H6.20162L6.32784 4.09119L6.3657 4.0183L6.37832 3.90263L6.43827 3.8234L6.44932 3.66495L6.50296 3.60474H6.54713L6.56922 3.58414L6.62444 3.56513L6.64021 3.58573L6.63075 3.60157V3.63326L6.64337 3.67763L6.67334 3.7014L6.75065 3.78379L6.8106 3.79647L6.89579 3.78379L6.95417 3.7521H6.99992L7.08985 3.77745L7.17977 3.75844L7.22868 3.70457H7.24919L7.26339 3.75844L7.2981 3.7933L7.45586 3.80597H7.49531H7.56946L7.65465 3.77904L7.70829 3.72041L7.71776 3.68714L7.75246 3.65545L7.81873 3.62059H7.89761L7.91339 3.5984L7.94336 3.57781H7.98123L8.00016 3.59523H8.03013L8.06484 3.54928V3.5065L8.1311 3.46531H8.17054L8.24785 3.45421L8.38353 3.34964L8.44506 3.35914H8.55234L8.61229 3.33854L8.67697 3.3734H8.71957L8.79057 3.30369L8.84421 3.32428H8.90258L8.93098 3.26724L8.96569 3.25932L9.01617 3.27516H9.04457L9.10294 3.28467L9.17709 3.272L9.2118 3.2815H9.28753L9.32382 3.33854H9.38692L9.44372 3.29418H9.48789L9.52418 3.30844L9.55889 3.26407L9.61568 3.25298V3.21495L9.68037 3.19911L9.71981 3.22921V3.27358L9.81605 3.28467L9.86338 3.23714V3.20861L9.9391 3.23555L10.0006 3.28942L10.119 3.25457L10.16 3.26407L10.2389 3.24823L10.2531 3.26566L10.3256 3.20228L10.4266 3.15157L10.5008 3.13573L10.5292 3.17692V3.14048L10.5907 3.1278L10.6254 3.1595V3.20861L10.6538 3.21812L10.6948 3.31478L10.7232 3.33062L10.7563 3.29576L10.8557 3.20386L10.881 3.22288V3.27833L10.8257 3.36073V3.41143L10.7579 3.45897L10.7453 3.53185L10.8131 3.62376L10.8952 3.65545V3.74735L10.9157 3.76161L10.9267 3.80122L10.8967 3.83291L10.9204 3.86619L10.8999 3.89788L10.8194 3.9771L10.6806 4.07534L10.6538 4.15773L10.698 4.23854L10.7863 4.30034L10.8273 4.29083L10.8399 4.33361L10.8778 4.35104L10.8983 4.33361V4.31302L10.9157 4.30034L10.9583 4.32411V4.36372L10.9662 4.39383L11.0498 4.44453H11.0829L11.146 4.45721L11.1997 4.50791L11.3369 4.53802L11.5325 4.50157L11.6098 4.53168H11.7676L11.8623 4.59347L12.0406 4.61883L12.1115 4.71231V4.79946L12.1983 4.96583L12.2914 5.01337H12.3987L12.4287 4.99594L12.5186 5.00703L12.7268 5.09418L12.8562 5.16073L12.9398 5.22886L13.0471 5.31759L13.1686 5.36671L13.227 5.34453L13.3216 5.26372L13.3311 5.23678L13.4037 5.1639L13.4273 5.10052L13.3926 4.98802L13.3421 4.90879L13.3516 4.7646L13.3863 4.73766L13.4037 4.66161L13.4715 4.59506L13.5898 4.53802L13.7271 4.52534L13.8138 4.48097H13.8344L13.8943 4.51108L13.9227 4.48573L13.9464 4.4984L14.0442 4.52376H14.1041L14.2225 4.58872V4.62358L14.2004 4.6315L14.2225 4.66319L14.3218 4.69013H14.3944L14.4323 4.72499L14.62 4.74717L14.6721 4.73925L14.7226 4.74717L14.762 4.79312L14.7873 4.87076H14.8157H14.9545L15.0618 4.90562L15.2795 4.92305L15.3694 4.94207L15.4483 4.99752L15.4814 4.97692H15.513L15.5934 5.02763H15.6881H15.7544L15.8553 5.09101H15.9484L15.9595 5.06566L16.0273 5.00703L16.0999 4.98326L16.1346 4.96425L16.2103 4.92305L16.2434 4.89928H16.3223H16.3775L16.3334 4.9183H16.2797V4.93097L16.2987 4.94999L16.3602 4.92464H16.4138H16.4659V4.90562L16.4249 4.8977L16.4406 4.88027L16.5353 4.90562L16.5921 4.92464H16.6379L16.6615 4.9484L16.6347 4.96108L16.6473 5.0102L16.7041 5.04189L16.742 5.09893V5.06249L16.6899 5.00703L16.7025 4.9595L16.8051 5.0308L16.9439 4.99277L17.1222 5.02288L17.1979 4.99277L17.2342 4.94365L17.2642 4.95791L17.3194 5.03872L17.3478 5.1433L17.4267 5.26372L17.4882 5.4095L17.4646 5.47763L17.5008 5.5727L17.4898 5.59013L17.4472 5.74858V5.80879L17.4141 5.89277L17.4393 5.91812L17.4188 6.01795L17.3809 6.05439L17.3699 6.08766V6.07182L17.2957 6.03062L17.1616 5.88802L17.1459 5.83573L17.0717 5.80245L17.0449 5.74699V5.69154L16.936 5.59964V5.56478L16.9108 5.53467L16.8919 5.46337H16.865L16.854 5.44594L16.8414 5.46495V5.50298V5.54101L16.8997 5.61707V5.68045L17.0039 5.80404L17.0165 5.8484L17.1743 5.98626L17.1979 6.03062L17.1869 6.07499V6.11619L17.2815 6.21918V6.25087L17.3099 6.28731L17.321 6.39506L17.351 6.44259V6.50122L17.5119 6.74999L17.5245 6.82921L17.5703 6.85932L17.6807 7.01777L17.7059 7.09224L17.7375 7.13027V7.11126L17.7548 7.12552L17.8006 7.19682H17.8274L17.859 7.23009H17.7769L17.7564 7.21266V7.23643L17.7754 7.27446V7.34418L17.7627 7.38379L17.8053 7.53115L17.8921 7.58661H17.9442L17.9789 7.57076L18.0136 7.64523L18.072 7.66266L18.0893 7.69752L18.154 7.76407L18.2029 7.78309V7.80685V7.83221L18.2171 7.85439V7.86865L18.2266 7.88133V7.89242L18.2376 7.90826L18.2565 7.9859L18.3102 8.05087V8.07781H18.2976L18.2897 8.06038L18.2676 8.03344L18.2581 8.04295V8.09365L18.326 8.29488L18.3402 8.4058L18.3244 8.50879L18.3622 8.62921L18.4127 8.72587L18.4585 8.73537L18.5815 8.81777V8.87164H18.6383L18.6983 8.90333V8.94295H18.7093L18.774 9.01266L18.8908 9.32006L18.9286 9.52129H18.9491L18.9649 9.59576V9.62111L19.0028 9.63379L19.0264 9.69242L19.0406 9.77956L19.0895 9.79224V9.71302H19.0769V9.65597L19.0974 9.64647L19.1479 9.71935L19.129 9.73995L19.1763 9.81126L19.2079 9.84453L19.2363 9.82552H19.2773L19.2946 9.83661L19.3309 9.82393L19.3814 9.88097L19.4082 9.91425L19.4855 9.93326L19.5029 9.96178L19.5976 10.0679L19.6386 10.1392L19.6954 10.163L19.7364 10.2121H19.7585V10.1963L19.7774 10.2216L19.8232 10.3389L19.8579 10.3484L19.8973 10.3991L19.8878 10.4165L19.9131 10.472H19.9415L19.973 10.4878L19.9951 10.4672L20.0046 10.4831H20.0188V10.5037L20.0835 10.5671H20.1008V10.594L20.1103 10.6811L20.0819 10.6922L20.0298 10.7509H19.9904L19.962 10.7936H19.902L19.9336 10.8317H19.9525L19.9951 10.8127H20.0677L20.0772 10.8317L20.0945 10.8665H20.1119L20.287 11.0804L20.3075 11.1232L20.3359 11.1312L20.4053 11.1945L20.4732 11.2104L20.5536 11.2009L20.5789 11.1692L20.6514 11.1248H20.6972L20.7903 11.0488H20.8187L20.8344 11.0646H20.9102L20.937 11.0551L20.9922 11.0804L21.0742 11.0709L21.2431 10.9664L21.2983 10.9553L21.3535 10.979L21.3945 10.9664H21.4702L21.5475 10.9267H21.6359L21.6627 10.9426H21.6911L21.8268 10.9172L21.8647 10.8697L21.9467 10.8586L21.9704 10.8792V10.8554L22.0555 10.8459L22.106 10.7968H22.1155L22.1376 10.7572L22.1723 10.7239H22.196V10.7113L22.2291 10.735L22.3001 10.7604H22.3332H22.3458L22.3159 10.8032L22.2985 10.8475V10.8935L22.2827 10.922L22.2954 10.9458H22.3379V10.9616L22.308 10.987L22.2843 11.0456L22.308 11.0789L22.3174 11.1264L22.2969 11.1708H22.3348V11.1565H22.3521L22.3695 11.1898L22.3506 11.1993V11.1882H22.3143H22.2906L22.2496 11.2579L22.2717 11.2944L22.2606 11.3609L22.2433 11.391V11.4639L22.1471 11.5986L22.0824 11.738L22.0413 11.7887H22.0193H26.0959C26.1176 11.7888 26.1383 11.7797 26.153 11.7638C26.1677 11.7478 26.175 11.7264 26.1732 11.7047C26.1732 11.6683 26.1638 11.6334 26.159 11.5986C26.1322 11.3783 26.0991 11.1597 26.0612 10.9426C26.0502 10.876 26.0376 10.8079 26.0249 10.7414C25.976 10.4878 25.9224 10.2359 25.8593 9.98714C25.8593 9.96812 25.8482 9.95069 25.8435 9.93168C25.7836 9.70034 25.7157 9.47059 25.6432 9.244C25.6226 9.17904 25.6021 9.11407 25.58 9.05069C25.5043 8.82886 25.4223 8.6102 25.3402 8.39312C25.3308 8.37252 25.3245 8.35034 25.315 8.32974C25.2203 8.09523 25.1178 7.86548 25.0105 7.6389C24.9821 7.57869 24.9521 7.52006 24.9237 7.46143C24.8301 7.27129 24.7323 7.08432 24.6303 6.90052L24.564 6.77851C24.441 6.56724 24.3116 6.35597 24.1759 6.14471L24.075 5.98626C23.9624 5.81619 23.8457 5.64981 23.7247 5.48714L23.6001 5.37147C23.4502 5.17499 23.2972 4.98168 23.1362 4.79471L23.0369 4.68221C22.9012 4.52376 22.7623 4.37481 22.6188 4.22587L22.4957 4.08802C22.3222 3.91214 22.1439 3.73942 21.9609 3.57305L21.8899 3.51284C21.7321 3.36548 21.5554 3.22446 21.3835 3.08661L21.2257 2.96143C21.0332 2.81249 20.8376 2.66671 20.6372 2.52886L20.623 2.51777C20.4164 2.37675 20.205 2.24207 19.992 2.11214L19.8137 2.01231C19.6259 1.90298 19.4366 1.79682 19.2442 1.69541L19.1432 1.64154C18.9223 1.52904 18.6951 1.42446 18.4664 1.32464L18.2912 1.25175C18.1003 1.17094 17.9063 1.0933 17.7107 1.02516L17.5529 0.968122C17.3163 0.885728 17.0796 0.809671 16.8319 0.741538L16.6741 0.697171C16.4722 0.643298 16.2687 0.594178 16.062 0.549812L15.8743 0.508615C15.6234 0.457911 15.371 0.413545 15.1138 0.378686L14.9876 0.36284C14.7652 0.334319 14.5475 0.312136 14.3234 0.294707L14.1152 0.280446C13.8501 0.264601 13.5851 0.25351 13.3169 0.25351H13.2695C13.0171 0.25351 12.7631 0.264601 12.5075 0.280446L12.2409 0.302629C12.0611 0.31689 11.8812 0.335904 11.7014 0.358087C11.5878 0.372348 11.471 0.385024 11.3574 0.402453H11.3322C5.54152 1.31345 1.08625 6.02413 0.477864 11.879C0.477864 11.9044 0.477864 11.9297 0.477864 11.9551C0.454199 12.1262 0.441578 12.2958 0.432112 12.4701C0.432112 12.5208 0.432112 12.5715 0.432112 12.6285C0.408447 12.8202 0.408447 13.0199 0.408447 13.2211C0.408447 13.237 0.408447 13.2528 0.408447 13.2686C0.408447 13.454 0.408447 13.6363 0.421069 13.8201L0.430535 13.9785C0.440001 14.137 0.451044 14.2954 0.466821 14.4634L0.476287 14.5759C0.496796 14.7692 0.522039 14.9609 0.550437 15.151C0.550437 15.1986 0.564636 15.2445 0.572524 15.2921C0.596189 15.4505 0.623009 15.5931 0.652985 15.7421C0.662451 15.7928 0.671917 15.8435 0.68296 15.9005C0.720824 16.0875 0.763421 16.2745 0.810751 16.4583C0.810751 16.4789 0.821795 16.501 0.828105 16.5216C0.870702 16.6801 0.918032 16.8496 0.96694 17.0113L1.01427 17.1697C1.06318 17.3282 1.11366 17.4708 1.17204 17.6213C1.18308 17.6514 1.19255 17.6831 1.20359 17.7132C1.26827 17.8891 1.33769 18.0634 1.40869 18.2361L1.46548 18.3676C1.52385 18.5023 1.58381 18.637 1.64691 18.7716L1.71002 18.9047C1.79206 19.0727 1.86778 19.2375 1.96244 19.4007L2.00189 19.4704C2.07919 19.613 2.15965 19.7525 2.24327 19.8919L2.32531 20.0266C2.40892 20.1628 2.49412 20.2975 2.58247 20.4306C2.59824 20.4528 2.61244 20.4766 2.62822 20.5003C2.73077 20.6588 2.83805 20.803 2.94375 20.9519L3.03052 21.0676C3.11887 21.1833 3.2088 21.2989 3.3003 21.4114C3.33028 21.4495 3.35868 21.4859 3.39023 21.5223C3.50698 21.6634 3.62688 21.8028 3.74994 21.9391L3.81146 22.0072C3.91717 22.1229 4.02603 22.2354 4.13489 22.3479L4.24532 22.4588C4.36207 22.5745 4.48039 22.687 4.6003 22.7979L4.6492 22.8438C4.78488 22.969 4.92529 23.0894 5.06571 23.2067L5.18087 23.3002C5.29289 23.3921 5.40806 23.484 5.52481 23.5727L5.63366 23.6551C5.78039 23.7644 5.93026 23.8722 6.08172 23.972L6.16849 24.0275C6.29628 24.113 6.42565 24.197 6.5566 24.2778L6.6907 24.3602C6.83584 24.4473 6.98257 24.5329 7.13087 24.6153L7.17662 24.6407C7.33438 24.7294 7.50477 24.8134 7.672 24.8942L7.80768 24.9607C7.94178 25.0241 8.07746 25.0843 8.21314 25.1445L8.3362 25.1984C8.50816 25.2697 8.68171 25.3394 8.85683 25.4028L8.96411 25.4424C9.10925 25.4931 9.2544 25.5438 9.40112 25.5898L9.55889 25.6389C9.73085 25.6912 9.9044 25.7403 10.0779 25.7863L10.1063 25.7942C10.2909 25.8417 10.4771 25.8845 10.6633 25.9241L10.821 25.9542C10.9788 25.9843 11.1208 26.0113 11.2738 26.0366L11.4048 26.0572C11.5941 26.0857 11.785 26.1095 11.9759 26.1301L12.1037 26.1412C12.2614 26.157 12.4192 26.1681 12.577 26.1776L12.7347 26.1871C12.9319 26.1951 13.1307 26.2014 13.3295 26.2014C13.5283 26.2014 13.7428 26.2014 13.9479 26.1871C14.0268 26.1871 14.1057 26.176 14.1799 26.1713C14.3077 26.1618 14.4339 26.1554 14.5601 26.1444C14.6421 26.1444 14.7178 26.1238 14.803 26.1142C14.9245 26.1016 15.0444 26.0889 15.1643 26.0715L15.4246 26.0287C15.5366 26.0097 15.6471 25.9938 15.7575 25.9732C15.868 25.9526 15.9374 25.9336 16.0273 25.9146C16.1172 25.8956 16.2387 25.8718 16.3428 25.8465C16.447 25.8211 16.5243 25.7989 16.6142 25.7752C16.7041 25.7514 16.8177 25.7229 16.9187 25.6944C17.0197 25.6658 17.097 25.6389 17.1853 25.6104C17.2737 25.5819 17.3841 25.5502 17.4819 25.5169C17.5797 25.4836 17.6554 25.4535 17.7422 25.4218C17.829 25.3901 17.9379 25.3521 18.0357 25.3141C18.1335 25.276 18.2076 25.2412 18.2944 25.2047C18.3812 25.1683 18.4821 25.1287 18.5752 25.0875C18.6683 25.0463 18.7456 25.0067 18.8292 24.9671C18.9128 24.9275 19.0138 24.8815 19.1037 24.8371C19.1937 24.7928 19.2615 24.75 19.3499 24.7056C19.4382 24.6613 19.5297 24.6121 19.6181 24.563C19.7064 24.5139 19.7758 24.4695 19.8563 24.422C19.9367 24.3745 20.033 24.3206 20.1182 24.2635C20.2034 24.2065 20.2759 24.1637 20.3501 24.113C20.4242 24.0623 20.5205 24.0037 20.6041 23.9466C20.6877 23.8896 20.754 23.8389 20.8297 23.7882C20.9054 23.7375 20.9875 23.6725 21.0742 23.6123L21.2935 23.4396C21.3724 23.3778 21.4513 23.3176 21.5286 23.2542L21.7384 23.0704C21.8142 23.0054 21.8962 22.9421 21.964 22.8755C22.0319 22.809 22.0981 22.7488 22.166 22.6854C22.2338 22.622 22.3127 22.5491 22.3853 22.4778C22.4579 22.4065 22.5131 22.3447 22.5778 22.2797C22.6424 22.2148 22.7182 22.1355 22.786 22.0627C22.8538 21.9898 22.9106 21.9232 22.9722 21.8551C23.0337 21.787 23.1063 21.7062 23.171 21.6301C23.2356 21.554 23.2877 21.4859 23.3461 21.413C23.4044 21.3401 23.4739 21.2546 23.5354 21.1801C23.5969 21.1056 23.6458 21.0216 23.7026 20.9535C23.7594 20.8854 23.821 20.7951 23.8793 20.7127C23.9377 20.6303 23.9835 20.5542 24.0371 20.4797C24.0907 20.4053 24.1491 20.3213 24.1949 20.231C24.2406 20.1407 24.2927 20.0725 24.3432 19.9901C24.3936 19.9077 24.4473 19.8206 24.5009 19.7334C24.5546 19.6463 24.5924 19.575 24.6382 19.4831C24.6839 19.3912 24.7344 19.3104 24.7802 19.2232C24.8259 19.1361 24.8669 19.0505 24.9095 18.965C24.9521 18.8794 24.9979 18.7875 25.0389 18.6972C25.0799 18.6069 25.1162 18.5213 25.1557 18.4326C25.1951 18.3438 25.2361 18.2519 25.274 18.16C25.3118 18.0681 25.3434 17.981 25.3781 17.8907C25.4128 17.8003 25.4507 17.7037 25.4854 17.6086C25.5201 17.5135 25.5453 17.4264 25.5769 17.3361C25.6084 17.2458 25.6416 17.1428 25.6716 17.0461C25.7015 16.9495 25.7252 16.8607 25.7504 16.7672C25.7757 16.6738 25.8072 16.5723 25.8325 16.4725C25.8577 16.3727 25.8782 16.2824 25.9003 16.1857C25.9224 16.0891 25.9476 15.9892 25.9681 15.8894C25.9887 15.7896 26.0044 15.6945 26.0218 15.5979C26.0391 15.5012 26.0612 15.3966 26.077 15.2952C26.0928 15.1938 26.1038 15.0972 26.118 14.9989C26.1322 14.9007 26.1433 14.8215 26.1527 14.7327C26.1545 14.6904 26.1222 14.6545 26.0802 14.6519ZM10.8873 4.28291L10.8431 4.24805V4.22745H10.8952L10.9157 4.2528L10.8873 4.28291ZM4.59241 12.0375L4.55454 12.0137L4.54665 11.9884L4.55928 11.9678H4.58925L4.61134 11.9947V12.0327L4.59241 12.0375ZM9.86022 14.0831L9.82867 14.1037H9.80658V14.0514L9.83971 14.0165L9.87442 14.0387L9.86022 14.0831ZM10.3335 13.1894V13.1466H10.3698L10.3919 13.0817L10.4503 13.0215L10.4708 13.0405V13.1197L10.4298 13.229L10.3761 13.2211L10.3335 13.1894Z" fill="#14142B"/>
<path d="M16.7702 21.7854L16.7426 21.7902L16.7231 21.795L16.7702 21.7854Z" fill="#14142B"/>
<path d="M31.3306 21.3924L30.6996 22.8977H30.0559L32.4934 17.3393L34.8693 22.8977H34.2177L33.5946 21.3924H31.3306ZM32.4729 18.7178L31.5689 20.8426H33.35L32.4729 18.7178Z" fill="#14142B"/>
<path d="M43.4061 18.141V19.7255H45.1652V20.2738H43.4061V22.9056H42.8176V17.5912H45.2141V18.141H43.4061Z" fill="#14142B"/>
<path d="M53.9464 22.8977H53.3579V17.5912H54.1215C55.1249 17.5912 56.0557 17.859 56.0557 19.0553C56.0557 19.8713 55.5446 20.4496 54.7321 20.5194L56.4139 22.8961H55.6913L54.0947 20.5669H53.9464V22.8977ZM53.9464 20.0456H54.1294C54.7952 20.0456 55.4673 19.9188 55.4673 19.0949C55.4673 18.2218 54.8362 18.1442 54.1215 18.1442H53.9464V20.0456Z" fill="#14142B"/>
<path d="M65.0658 22.8977H64.4773V17.5912H65.0658V22.8977Z" fill="#14142B"/>
<path d="M77.5972 18.7526C77.1746 18.3079 76.5906 18.054 75.9785 18.0491C74.8015 18.0491 73.8486 19.0775 73.8486 20.2452C73.8561 21.4401 74.8095 22.4118 75.999 22.4366C76.603 22.4206 77.1768 22.1675 77.5972 21.7315V22.4636C77.1383 22.7983 76.5866 22.9805 76.0195 22.9849C75.0433 22.9849 74.1412 22.4618 73.6531 21.6127C73.165 20.7636 73.165 19.7174 73.6531 18.8683C74.1412 18.0192 75.0433 17.4961 76.0195 17.4961C76.5884 17.4876 77.1438 17.6705 77.5972 18.0158V18.7526ZM86.7381 21.3924L86.1071 22.8977H85.4618L87.9009 17.3393L90.2753 22.8977H89.6237L88.9926 21.3924H86.7381ZM87.8804 18.7178L86.9764 20.8426H88.7575L87.8804 18.7178ZM37.4504 11.0947H31.4884C31.4884 12.2514 32.0942 12.8757 33.2617 12.8757C33.8691 12.8757 34.3045 12.6729 34.6153 12.1421H37.3415C37.1409 13.0125 36.5957 13.7632 35.8317 14.221C35.0582 14.6756 34.1751 14.908 33.279 14.8928C30.6333 14.8928 28.6565 13.3923 28.6565 10.6257C28.6565 7.95264 30.4771 6.34753 33.0739 6.34753C35.8443 6.34753 37.4472 8.06672 37.4472 10.8016L37.4504 11.0947ZM34.8204 9.45317C34.6614 8.6971 33.9866 8.16351 33.2175 8.18556C32.3924 8.18556 31.7077 8.62289 31.5357 9.45317H34.8204Z" fill="#14142B"/>
<path d="M46.2001 7.38379V2.841H49.2513V14.6266H46.2001V9.79699H41.7953V14.6266H38.7456V2.841H41.7953V7.38379H46.2001Z" fill="#14142B"/>
<path d="M59.1448 11.0947H53.1844C53.1844 12.2514 53.7918 12.8757 54.9577 12.8757C55.5651 12.8757 56.0005 12.6729 56.3129 12.1421H59.0359C58.8345 13.0139 58.2867 13.765 57.5198 14.2209C56.7463 14.6756 55.8633 14.908 54.9672 14.8928C52.3214 14.8928 50.3446 13.3923 50.3446 10.6257C50.3446 7.95264 52.1652 6.34753 54.7621 6.34753C57.5324 6.34753 59.1353 8.06672 59.1353 10.8016L59.1448 11.0947ZM56.5148 9.45317C56.3558 8.6971 55.681 8.16351 54.9119 8.18556C54.0868 8.18556 53.4021 8.62289 53.2301 9.45317H56.5148ZM69.4075 14.6266H66.5677V13.7361H66.5377C66.0392 14.5283 65.0579 14.8928 64.1239 14.8928C61.7574 14.8928 60.093 12.9074 60.093 10.6146C60.093 8.32183 61.7274 6.34753 64.0939 6.34753C65.0121 6.34753 65.9761 6.69137 66.5677 7.39489V6.60739H69.4075V14.6266ZM63.0259 10.6257C63.0259 11.6414 63.6948 12.4225 64.8465 12.4225C65.9982 12.4225 66.6703 11.6414 66.6703 10.6257C66.6703 9.64014 65.9982 8.80986 64.8465 8.80986C63.6948 8.80986 63.0259 9.64014 63.0259 10.6257Z" fill="#14142B"/>
<path d="M73.8013 14.6266H70.9694V1.65262H73.8013V14.6266Z" fill="#14142B"/>
<path d="M84.8497 1.65262V7.62463H84.8812C85.5344 6.74839 86.3279 6.34276 87.4339 6.34276C89.4564 6.34276 90.4314 7.68642 90.4314 9.71776V14.6297H87.5916V10.5163C87.5916 9.57832 87.4512 8.61494 86.3153 8.61494C85.1794 8.61494 84.837 9.58466 84.837 10.5163V14.6266H81.9973V1.65262H84.8497Z" fill="#14142B"/>
<path d="M80.9291 6.60737H79.3262V1.65262H76.4928V6.60737H74.8914V8.95244H76.4928V14.6266H79.3262V8.95244H80.9291V6.60737Z" fill="#14142B"/>
</g>
<defs>
<clipPath id="clip0_101_473">
<rect width="90.0845" height="25.9859" fill="white" transform="translate(0.408447 0.25351)"/>
</clipPath>
</defs>
</svg>
