<svg width="76" height="75" viewBox="0 0 76 75" fill="none" xmlns="http://www.w3.org/2000/svg">
<path d="M38.1123 73.0702C57.8848 73.0702 73.9136 57.0414 73.9136 37.2688C73.9136 17.4963 57.8848 1.46751 38.1123 1.46751C18.3397 1.46751 2.31094 17.4963 2.31094 37.2688C2.31094 57.0414 18.3397 73.0702 38.1123 73.0702Z" fill="#14142B"/>
<path d="M50.9847 29.0292C50.9913 28.9874 50.9849 28.9446 50.9664 28.9066C50.9479 28.8687 50.9181 28.8373 50.8811 28.8168C50.8633 28.8068 50.8439 28.7998 50.8237 28.796C50.803 28.7925 50.7818 28.7943 50.7619 28.8012C50.7196 28.8078 50.6805 28.8281 50.6507 28.8588C50.6209 28.8896 50.6018 28.9293 50.5965 28.9718L49.7771 35.4415L50.9847 29.0292Z" fill="#14142B"/>
<path d="M51.9754 29.2981C51.9899 29.2572 51.9904 29.2127 51.9769 29.1714C51.9634 29.1302 51.9367 29.0946 51.9009 29.0701C51.8856 29.0567 51.8679 29.0463 51.8488 29.0396H51.8435C51.8237 29.0327 51.8024 29.0309 51.7817 29.0344C51.7389 29.0332 51.6969 29.0462 51.6622 29.0714C51.6276 29.0966 51.6023 29.1326 51.5903 29.1737L49.7682 35.4363L51.9754 29.2981Z" fill="#14142B"/>
<path d="M52.9148 29.7175C52.9348 29.68 52.9422 29.637 52.9357 29.5949C52.9293 29.5529 52.9094 29.5141 52.879 29.4843C52.8669 29.4682 52.8507 29.4556 52.8321 29.4478H52.8269C52.8093 29.4389 52.79 29.4338 52.7702 29.4329C52.7279 29.4266 52.6847 29.4337 52.6466 29.4532C52.6086 29.4727 52.5775 29.5036 52.5579 29.5417L49.7734 35.4415L52.9148 29.7175Z" fill="#14142B"/>
<path d="M53.7796 30.2814C53.8058 30.2472 53.8201 30.2053 53.8201 30.1622C53.8201 30.1191 53.8058 30.0772 53.7796 30.043C53.7684 30.0254 53.7543 30.0098 53.7379 29.9968C53.7218 29.983 53.7022 29.974 53.6813 29.9708C53.6411 29.9565 53.5972 29.9561 53.5567 29.9696C53.5163 29.9831 53.4814 30.0097 53.4578 30.0453L49.7831 35.4386L53.7796 30.2814Z" fill="#14142B"/>
<path d="M43.0914 34.4739C43.0979 34.5159 43.1178 34.5547 43.1481 34.5845C43.1784 34.6143 43.2176 34.6335 43.2597 34.6392L49.7294 35.4624L43.323 34.2459C43.2813 34.2393 43.2385 34.2456 43.2005 34.2642C43.1625 34.2827 43.1312 34.3125 43.1107 34.3495C43.0985 34.3662 43.0912 34.3861 43.0899 34.4068C43.0853 34.429 43.0858 34.4519 43.0914 34.4739Z" fill="#14142B"/>
<path d="M53.7796 40.6538L49.7838 35.4937L53.4533 40.8869C53.4781 40.9212 53.513 40.9468 53.5531 40.9602C53.5932 40.9735 53.6365 40.974 53.6768 40.9614C53.697 40.956 53.7161 40.9471 53.7334 40.9354C53.7486 40.9211 53.7625 40.9057 53.7752 40.8892C53.8013 40.8557 53.8159 40.8147 53.8167 40.7722C53.8175 40.7298 53.8045 40.6882 53.7796 40.6538Z" fill="#14142B"/>
<path d="M49.7786 35.4989L52.5632 41.3994C52.5811 41.4388 52.6119 41.4709 52.6505 41.4905C52.689 41.5101 52.7331 41.5161 52.7755 41.5075C52.7954 41.5081 52.8151 41.503 52.8321 41.4926C52.8511 41.483 52.8672 41.4686 52.879 41.4508C52.9094 41.4211 52.9293 41.3823 52.9357 41.3402C52.9422 41.2982 52.9348 41.2552 52.9148 41.2177L49.7786 35.4989Z" fill="#14142B"/>
<path d="M49.7734 35.4989L51.6029 41.7615C51.6149 41.8027 51.6402 41.8388 51.6748 41.8641C51.7095 41.8894 51.7515 41.9026 51.7944 41.9015C51.8151 41.9024 51.8359 41.9006 51.8562 41.8963C51.8778 41.8912 51.8976 41.8804 51.9136 41.865C51.9487 41.84 51.9749 41.8043 51.9883 41.7633C52.0017 41.7223 52.0017 41.6781 51.9881 41.6371L49.7734 35.4989Z" fill="#14142B"/>
<path d="M50.5913 41.9738C50.5975 42.016 50.6168 42.0551 50.6465 42.0858C50.6762 42.1164 50.7147 42.1369 50.7567 42.1444C50.7773 42.1487 50.7983 42.1505 50.8193 42.1496C50.8709 42.139 50.9164 42.1087 50.9463 42.0653C50.9761 42.0218 50.988 41.9685 50.9794 41.9164L49.763 35.51L50.5913 41.9738Z" fill="#14142B"/>
<path d="M49.5663 42.02C49.5652 42.0629 49.5784 42.1049 49.6037 42.1395C49.6291 42.1742 49.6651 42.1994 49.7063 42.2114C49.7258 42.22 49.747 42.2236 49.7682 42.2219C49.7891 42.221 49.8099 42.2175 49.83 42.2114C49.8708 42.1987 49.9063 42.1732 49.9315 42.1388C49.9568 42.1043 49.9703 42.0627 49.9701 42.02L49.7682 35.4989L49.5663 42.02Z" fill="#14142B"/>
<path d="M48.5413 41.9112C48.5347 41.9529 48.5412 41.9957 48.5597 42.0336C48.5782 42.0716 48.6079 42.103 48.6448 42.1235C48.6616 42.1358 48.6815 42.143 48.7022 42.1444C48.7229 42.1479 48.7442 42.1461 48.764 42.1392C48.8064 42.1327 48.8455 42.1125 48.8754 42.0817C48.9052 42.0509 48.9242 42.0112 48.9294 41.9686L49.7488 35.4989L48.5413 41.9112Z" fill="#14142B"/>
<path d="M47.5475 41.6371C47.5332 41.678 47.5327 41.7225 47.5462 41.7637C47.5597 41.8049 47.5863 41.8405 47.622 41.865C47.6376 41.8805 47.6572 41.8913 47.6786 41.8963C47.6986 41.9028 47.7197 41.9046 47.7405 41.9015C47.7834 41.9027 47.8255 41.8896 47.8601 41.8642C47.8948 41.8389 47.92 41.8028 47.9319 41.7615L49.7592 35.4989L47.5475 41.6371Z" fill="#14142B"/>
<path d="M46.6119 41.2177C46.5918 41.2552 46.5845 41.2982 46.5909 41.3402C46.5974 41.3823 46.6173 41.4211 46.6477 41.4509C46.6606 41.4662 46.6766 41.4786 46.6946 41.4874C46.7137 41.4974 46.7349 41.5028 46.7564 41.503C46.7987 41.5091 46.8419 41.5019 46.8799 41.4824C46.9179 41.4629 46.9489 41.4321 46.9687 41.3942L49.7533 35.4937L46.6119 41.2177Z" fill="#14142B"/>
<path d="M45.7515 40.6538C45.7253 40.688 45.7111 40.7299 45.7111 40.773C45.7111 40.8161 45.7253 40.858 45.7515 40.8922C45.7628 40.9098 45.7769 40.9254 45.7932 40.9384C45.8094 40.952 45.829 40.9611 45.8498 40.9644C45.8901 40.9787 45.9339 40.9791 45.9744 40.9656C46.0149 40.9521 46.0497 40.9255 46.0733 40.8899L49.7481 35.4966L45.7515 40.6538Z" fill="#14142B"/>
<path d="M44.9909 39.9602C44.9599 39.9895 44.9391 40.028 44.9316 40.0699C44.9241 40.1119 44.9303 40.1552 44.9492 40.1934C44.9567 40.2122 44.9673 40.2296 44.9805 40.2448V40.25C44.9957 40.2651 45.0133 40.2774 45.0327 40.2865C45.0707 40.3054 45.1139 40.3116 45.1558 40.3041C45.1976 40.2966 45.2359 40.2758 45.2651 40.2448L49.7346 35.4937L44.9909 39.9602Z" fill="#14142B"/>
<path d="M44.3436 39.158C44.3095 39.1829 44.284 39.2178 44.2707 39.2578C44.2573 39.2979 44.2568 39.3411 44.2691 39.3814C44.2756 39.4012 44.2844 39.4202 44.2952 39.438C44.3095 39.4534 44.3252 39.4673 44.3421 39.4798C44.3767 39.5048 44.4182 39.5183 44.4609 39.5183C44.5036 39.5183 44.5452 39.5048 44.5797 39.4798L49.7406 35.4832L44.3436 39.158Z" fill="#14142B"/>
<path d="M43.837 38.2678C43.7975 38.2855 43.7651 38.3162 43.7454 38.3548C43.7256 38.3934 43.7196 38.4376 43.7283 38.4801C43.7279 38.5001 43.7333 38.5197 43.7439 38.5367C43.7531 38.5558 43.7672 38.572 43.7849 38.5836C43.8147 38.614 43.8535 38.6339 43.8955 38.6403C43.9376 38.6468 43.9806 38.6394 44.0181 38.6194L49.7406 35.4832L43.837 38.2678Z" fill="#14142B"/>
<path d="M43.469 37.3053C43.4279 37.3173 43.3919 37.3427 43.3667 37.3773C43.3415 37.4119 43.3285 37.454 43.3297 37.4968C43.3289 37.5175 43.3306 37.5383 43.335 37.5586C43.3398 37.5801 43.3504 37.5999 43.3655 37.616C43.3907 37.6509 43.4264 37.677 43.4673 37.6904C43.5083 37.7038 43.5525 37.7038 43.5934 37.6905L49.7317 35.4855L43.469 37.3053Z" fill="#14142B"/>
<path d="M43.2597 36.296C43.2175 36.3022 43.1784 36.3215 43.1478 36.3511C43.1172 36.3808 43.0966 36.4194 43.0891 36.4613C43.0849 36.4816 43.0831 36.5024 43.0839 36.5232C43.0877 36.5433 43.0947 36.5627 43.1048 36.5805C43.1235 36.619 43.1546 36.6502 43.1931 36.6689C43.2315 36.6877 43.2752 36.693 43.3171 36.6841L49.7235 35.4676L43.2597 36.296Z" fill="#14142B"/>
<path d="M43.2106 35.6695L49.7317 35.4728L43.2106 35.2761C43.1676 35.275 43.1255 35.2881 43.0909 35.3134C43.0562 35.3388 43.031 35.3749 43.0191 35.4162C43.0106 35.4356 43.007 35.4569 43.0087 35.478C43.0095 35.499 43.013 35.5197 43.0191 35.5398C43.0343 35.5782 43.0606 35.6111 43.0948 35.6342C43.129 35.6574 43.1693 35.6696 43.2106 35.6695Z" fill="#14142B"/>
<path d="M43.4691 33.6306L49.7317 35.4586L43.5935 33.2537C43.5526 33.2393 43.5081 33.2389 43.4669 33.2523C43.4257 33.2658 43.3901 33.2924 43.3655 33.3281C43.3502 33.3438 43.3397 33.3634 43.335 33.3848C43.3281 33.4046 43.3263 33.4259 43.3298 33.4466C43.33 33.4882 43.3438 33.5286 43.3689 33.5617C43.394 33.5949 43.4291 33.619 43.4691 33.6306Z" fill="#14142B"/>
<path d="M43.837 32.6726L49.7406 35.4586L44.0218 32.3173C43.9843 32.2972 43.9413 32.2899 43.8992 32.2963C43.8572 32.3028 43.8184 32.3227 43.7886 32.353C43.772 32.3678 43.7581 32.3855 43.7477 32.4052C43.7376 32.4242 43.7322 32.4454 43.732 32.467C43.7251 32.508 43.7316 32.5501 43.7505 32.5872C43.7695 32.6242 43.7998 32.6541 43.837 32.6726Z" fill="#14142B"/>
<path d="M44.3436 31.7772L49.7406 35.4467L44.5857 31.4561C44.5515 31.4299 44.5096 31.4157 44.4665 31.4157C44.4234 31.4157 44.3815 31.4299 44.3473 31.4561C44.3308 31.4688 44.3154 31.4827 44.3011 31.4979C44.2874 31.514 44.2784 31.5336 44.2751 31.5545C44.2616 31.5941 44.261 31.6369 44.2733 31.6769C44.2856 31.7169 44.3102 31.752 44.3436 31.7772Z" fill="#14142B"/>
<path d="M44.9909 30.9749L49.7421 35.4445L45.2725 30.6933C45.2434 30.6624 45.2051 30.6416 45.1632 30.6341C45.1213 30.6266 45.0782 30.6327 45.0401 30.6516C45.0197 30.6588 45.0017 30.6714 44.988 30.6881C44.9731 30.7032 44.9608 30.7205 44.9515 30.7395C44.9317 30.7777 44.9248 30.8213 44.932 30.8638C44.9391 30.9062 44.9598 30.9452 44.9909 30.9749Z" fill="#14142B"/>
<path d="M45.7515 30.2814L49.7473 35.4415L46.0778 30.0482C46.0531 30.0139 46.0182 29.9882 45.9781 29.9748C45.938 29.9615 45.8947 29.9611 45.8543 29.9737C45.8342 29.9794 45.8151 29.9882 45.7977 29.9998C45.7826 30.014 45.7686 30.0295 45.756 30.046C45.7286 30.0789 45.7133 30.1201 45.7125 30.1629C45.7117 30.2057 45.7254 30.2475 45.7515 30.2814Z" fill="#14142B"/>
<path d="M49.7473 35.4415L46.9628 29.5417C46.945 29.5021 46.9143 29.4698 46.8757 29.45C46.8371 29.4302 46.7929 29.4242 46.7505 29.4329C46.7306 29.4327 46.711 29.4379 46.6938 29.4478C46.6748 29.4574 46.6587 29.4718 46.6469 29.4895C46.6167 29.5194 46.5969 29.5582 46.5906 29.6003C46.5843 29.6423 46.5918 29.6853 46.6119 29.7227L49.7473 35.4415Z" fill="#14142B"/>
<path d="M49.7525 35.4363L47.926 29.1737C47.9138 29.1325 47.8884 29.0965 47.8536 29.0713C47.8188 29.0461 47.7767 29.0331 47.7338 29.0344C47.713 29.0336 47.6923 29.0353 47.6719 29.0396C47.6506 29.0443 47.631 29.0549 47.6153 29.0701C47.5802 29.0952 47.554 29.1308 47.5406 29.1718C47.5272 29.2129 47.5273 29.2571 47.5408 29.2981L49.7525 35.4363Z" fill="#14142B"/>
<path d="M48.9346 28.9614C48.9285 28.9191 48.9092 28.8799 48.8795 28.8493C48.8498 28.8187 48.8112 28.7982 48.7692 28.7908C48.7489 28.7865 48.7281 28.7847 48.7074 28.7856C48.6873 28.7893 48.6679 28.7964 48.65 28.8064C48.6116 28.8252 48.5806 28.8563 48.5618 28.8948C48.543 28.9333 48.5377 28.9769 48.5465 29.0187L49.763 35.4251L48.9346 28.9614Z" fill="#14142B"/>
<path d="M49.9641 28.9152C49.9654 28.8722 49.9523 28.8301 49.927 28.7954C49.9016 28.7607 49.8654 28.7355 49.824 28.7237C49.8046 28.7152 49.7834 28.7116 49.7622 28.7133C49.7412 28.7142 49.7205 28.7177 49.7004 28.7237C49.6597 28.7366 49.6242 28.7621 49.599 28.7965C49.5738 28.8309 49.5603 28.8725 49.5603 28.9152L49.7622 35.4363L49.9641 28.9152Z" fill="#14142B"/>
<path d="M54.5402 30.9749C54.5713 30.9457 54.5922 30.9073 54.5997 30.8653C54.6072 30.8233 54.601 30.7799 54.5819 30.7418C54.5745 30.7217 54.5619 30.704 54.5454 30.6904C54.5304 30.6755 54.513 30.6632 54.494 30.6539C54.4558 30.6349 54.4125 30.6287 54.3705 30.6362C54.3285 30.6437 54.2901 30.6645 54.2608 30.6956L49.7913 35.4467L54.5402 30.9749Z" fill="#14142B"/>
<path d="M55.1823 31.7772C55.2166 31.7525 55.2423 31.7176 55.2557 31.6775C55.2691 31.6374 55.2695 31.5941 55.2568 31.5537C55.2512 31.5336 55.2424 31.5145 55.2307 31.4971C55.2167 31.4818 55.2012 31.4678 55.1846 31.4554C55.1499 31.4303 55.1082 31.4168 55.0654 31.4168C55.0226 31.4168 54.9809 31.4303 54.9462 31.4554L49.786 35.4512L55.1823 31.7772Z" fill="#14142B"/>
<path d="M55.6948 32.6726C55.7342 32.6546 55.7663 32.6239 55.7859 32.5853C55.8055 32.5468 55.8115 32.5027 55.8029 32.4603C55.8029 32.4388 55.7978 32.4176 55.788 32.3985C55.777 32.3789 55.7629 32.3613 55.7462 32.3463C55.7165 32.316 55.6777 32.2961 55.6356 32.2896C55.5936 32.2832 55.5506 32.2905 55.5131 32.3106L49.7943 35.4467L55.6948 32.6726Z" fill="#14142B"/>
<path d="M56.0569 33.6306C56.0981 33.6185 56.1342 33.593 56.1595 33.5583C56.1849 33.5235 56.198 33.4814 56.1969 33.4384C56.1977 33.4177 56.196 33.3969 56.1917 33.3766V33.3728C56.1866 33.353 56.1757 33.3351 56.1604 33.3214C56.1354 33.2863 56.0997 33.2601 56.0587 33.2467C56.0177 33.2333 55.9734 33.2334 55.9325 33.2469L49.7943 35.4519L56.0569 33.6306Z" fill="#14142B"/>
<path d="M56.2692 34.6392C56.3114 34.633 56.3505 34.6137 56.3811 34.584C56.4117 34.5544 56.4322 34.5158 56.4398 34.4739C56.4437 34.4548 56.4455 34.4353 56.445 34.4157C56.4412 34.3956 56.4342 34.3762 56.4241 34.3584C56.4055 34.3198 56.3744 34.2886 56.3359 34.2698C56.2974 34.251 56.2537 34.2457 56.2118 34.2548L49.8054 35.4713L56.2692 34.6392Z" fill="#14142B"/>
<path d="M56.5195 35.4676C56.5186 35.4466 56.5151 35.4259 56.509 35.4058C56.4962 35.3651 56.4707 35.3296 56.4363 35.3044C56.4018 35.2792 56.3602 35.2656 56.3176 35.2657L49.7965 35.4624L56.3176 35.659C56.3604 35.6603 56.4024 35.6473 56.4371 35.622C56.4717 35.5968 56.497 35.5609 56.509 35.5197C56.516 35.5033 56.5196 35.4855 56.5195 35.4676Z" fill="#14142B"/>
<path d="M56.0569 37.3053L49.7943 35.478L55.9325 37.683C55.9734 37.6975 56.0179 37.698 56.0591 37.6845C56.1003 37.6711 56.136 37.6443 56.1604 37.6085C56.1758 37.5925 56.1866 37.5727 56.1917 37.5512C56.1982 37.5312 56.2 37.5101 56.1969 37.4893C56.1967 37.4476 56.1829 37.4071 56.1577 37.3739C56.1324 37.3407 56.097 37.3167 56.0569 37.3053Z" fill="#14142B"/>
<path d="M55.6948 38.2678L49.7943 35.4832L55.5131 38.6194C55.5506 38.6394 55.5936 38.6468 55.6356 38.6403C55.6776 38.6339 55.7165 38.614 55.7462 38.5836C55.7615 38.5707 55.774 38.5547 55.7827 38.5367C55.7928 38.5176 55.7982 38.4964 55.7984 38.4749C55.8072 38.4337 55.8017 38.3908 55.7829 38.3532C55.7641 38.3155 55.733 38.2854 55.6948 38.2678Z" fill="#14142B"/>
<path d="M55.1823 39.158L49.789 35.4884L54.9492 39.4813C54.9834 39.5075 55.0252 39.5217 55.0683 39.5217C55.1114 39.5217 55.1533 39.5075 55.1875 39.4813C55.2042 39.4688 55.2197 39.4549 55.2337 39.4395C55.2475 39.4235 55.2566 39.4039 55.2598 39.3829C55.2727 39.3421 55.2722 39.2982 55.2582 39.2576C55.2443 39.2171 55.2177 39.1822 55.1823 39.158Z" fill="#14142B"/>
<path d="M54.5402 39.9603L49.789 35.4907L54.2586 40.2419C54.2878 40.273 54.3263 40.2939 54.3683 40.3014C54.4103 40.3089 54.4536 40.3027 54.4918 40.2836C54.5105 40.2761 54.5279 40.2655 54.5432 40.2523H54.5484C54.5633 40.2372 54.5756 40.2199 54.5849 40.2009C54.6017 40.1608 54.6063 40.1167 54.5984 40.0739C54.5905 40.0312 54.5702 39.9917 54.5402 39.9603Z" fill="#14142B"/>
<path d="M56.4346 36.4613C56.4279 36.419 56.4077 36.3799 56.3769 36.3501C56.3462 36.3203 56.3065 36.3013 56.264 36.296L49.7943 35.4728L56.2006 36.6893C56.2423 36.696 56.285 36.6896 56.3229 36.6711C56.3608 36.6526 56.392 36.6227 56.4122 36.5857C56.4223 36.5679 56.4293 36.5485 56.4331 36.5284C56.4414 36.5069 56.4419 36.4832 56.4346 36.4613Z" fill="#14142B"/>
<path d="M53.4785 36.0413C53.8114 33.9901 52.4185 32.0573 50.3673 31.7244C48.3161 31.3914 46.3834 32.7843 46.0504 34.8355C45.7175 36.8867 47.1104 38.8195 49.1616 39.1524C51.2128 39.4854 53.1455 38.0925 53.4785 36.0413Z" fill="#FCFCFC"/>
<g opacity="0.8">
<path opacity="0.8" d="M33.3663 49.7994V48.3713H33.6196C34.0077 49.2816 34.0703 49.4217 34.0852 49.4887C34.0755 49.3077 34.0703 49.0902 34.0703 48.8578V48.3713H34.2617V49.7994H34.0285C33.6196 48.8265 33.5734 48.6969 33.5525 48.6403C33.563 48.8213 33.563 49.0492 33.563 49.3025V49.7994H33.3663Z" fill="#14142B"/>
<path opacity="0.8" d="M35.8849 49.0752C35.8849 49.5564 35.7404 49.8201 35.3933 49.8201C35.0625 49.8201 34.9173 49.5617 34.9173 49.0752C34.9173 48.6089 35.0826 48.3504 35.4089 48.3504C35.7352 48.3504 35.8849 48.6089 35.8849 49.0752ZM35.1296 49.07C35.1296 49.432 35.2123 49.6443 35.3985 49.6443C35.5847 49.6443 35.6681 49.4425 35.6681 49.07C35.6681 48.7124 35.5899 48.521 35.3985 48.521C35.207 48.521 35.1311 48.7281 35.1311 49.07H35.1296Z" fill="#14142B"/>
<path opacity="0.8" d="M36.5338 49.7993V48.3713H36.787C37.1751 49.2816 37.2377 49.4216 37.2534 49.4887C37.2429 49.3077 37.2377 49.0901 37.2377 48.8577V48.3713H37.4292V49.7993H37.1908C36.7818 48.8264 36.7356 48.6968 36.7148 48.6402C36.7252 48.8212 36.7252 49.0492 36.7252 49.3024V49.7993H36.5338Z" fill="#14142B"/>
<path opacity="0.8" d="M38.1435 48.3713H38.5667C38.805 48.3713 38.9808 48.5106 38.9808 48.7802C38.9808 49.0499 38.8155 49.1989 38.5413 49.1989H38.3506V49.7948H38.1435V48.3713ZM38.3506 49.0335H38.5212C38.6814 49.0335 38.7693 48.959 38.7693 48.7795C38.773 48.7479 38.7695 48.7158 38.7592 48.6856C38.749 48.6555 38.732 48.628 38.7098 48.6052C38.6875 48.5824 38.6604 48.5649 38.6305 48.554C38.6006 48.543 38.5686 48.5389 38.5369 48.5419H38.3506V49.0335Z" fill="#14142B"/>
<path opacity="0.8" d="M39.6751 49.3956L39.5768 49.7993H39.3697C39.3853 49.7531 39.7168 48.4227 39.7377 48.3713H40.0066L40.3843 49.7993H40.1668L40.0684 49.3956H39.6751ZM40.0275 49.2145C39.953 48.8935 39.8926 48.6812 39.8718 48.5575H39.8666C39.8464 48.6916 39.7921 48.93 39.7176 49.2145H40.0275Z" fill="#14142B"/>
<path opacity="0.8" d="M41.1657 49.1654V49.7963H40.9586V48.3713H41.3974C41.6514 48.3713 41.7959 48.5054 41.7959 48.749C41.7959 48.956 41.6872 49.0469 41.5993 49.0797C41.7289 49.1318 41.7751 49.2406 41.7751 49.4373V49.4887C41.7719 49.5926 41.7789 49.6967 41.7959 49.7993H41.594C41.5719 49.6973 41.5631 49.5929 41.568 49.4887V49.4425C41.568 49.2458 41.5218 49.1683 41.3303 49.1683L41.1657 49.1654ZM41.1657 48.994H41.3423C41.5076 48.994 41.5851 48.9195 41.5851 48.7564C41.5884 48.727 41.5851 48.6973 41.5753 48.6694C41.5656 48.6415 41.5497 48.6161 41.5287 48.5952C41.5078 48.5743 41.4825 48.5584 41.4546 48.5487C41.4267 48.5389 41.397 48.5356 41.3676 48.5389H41.1657V48.994Z" fill="#14142B"/>
<path opacity="0.8" d="M43.1584 49.1423H42.6511V49.6235H43.2158L43.1897 49.8045H42.4448V48.3765H43.1852V48.5575H42.6519V48.9665H43.1592L43.1584 49.1423Z" fill="#14142B"/>
<path opacity="0.8" d="M44.0233 48.3713V49.7993H43.8162V48.3713H44.0233Z" fill="#14142B"/>
<path opacity="0.8" d="M44.7325 48.3713H44.9395V49.6235H45.4826L45.4565 49.7993H44.7325V48.3713Z" fill="#14142B"/>
</g>
<path d="M11.8237 40.2262C10.9586 39.769 10.2353 39.0834 9.73268 38.2439C9.22538 37.4007 8.97136 36.4427 8.97136 35.3767C8.97136 34.3107 9.22538 33.3527 9.73268 32.5095C10.2358 31.671 10.9589 30.9865 11.8237 30.5302C12.7087 30.0534 13.7059 29.8153 14.8153 29.8158C15.6844 29.8038 16.5466 29.9712 17.3481 30.3074C18.0852 30.6208 18.7366 31.1061 19.2477 31.7228L17.6483 33.1978C16.919 32.359 16.0184 31.9351 14.942 31.9351C14.3199 31.9224 13.7056 32.074 13.1608 32.3746C12.6452 32.657 12.2211 33.0808 11.9384 33.5963C11.6412 34.1421 11.4896 34.7553 11.4982 35.3767C11.4858 35.9985 11.6376 36.6127 11.9384 37.1571C12.2207 37.6723 12.6443 38.0962 13.1594 38.3788C13.7055 38.6758 14.3189 38.8272 14.9405 38.8183C16.0169 38.8183 16.9175 38.3944 17.6468 37.54L19.2462 39.0149C18.7366 39.6387 18.0828 40.129 17.3414 40.4437C16.5396 40.7789 15.6776 40.9462 14.8086 40.9354C13.7032 40.9436 12.7094 40.7059 11.8237 40.2262Z" fill="#FCFCFC"/>
<path d="M23.791 29.9968H26.2805V40.7573H23.791V29.9968Z" fill="#FCFCFC"/>
<path d="M37.9521 40.7573L35.876 37.7605H33.5831V40.7573H31.0935V29.9968H35.7523C36.7043 29.9968 37.5325 30.1555 38.2367 30.4728C38.9406 30.7887 39.4785 31.2386 39.8561 31.8241C40.2338 32.4097 40.429 33.1024 40.429 33.8995C40.429 34.6966 40.2375 35.3894 39.8547 35.9645C39.4718 36.5395 38.9227 36.9895 38.2158 37.2949L40.6279 40.7521H37.9521V40.7573ZM37.3204 32.5125C36.9323 32.1914 36.3632 32.026 35.6123 32.026H33.5831V35.7782H35.6123C36.3632 35.7782 36.9271 35.6129 37.3204 35.2866C37.7137 34.9603 37.9052 34.4999 37.9052 33.9047C37.9052 33.3095 37.7085 32.8335 37.3204 32.5125Z" fill="#FCFCFC"/>
<path d="M66.284 38.454H61.287L60.335 40.7573H57.7859L62.5832 29.9968H65.0415L69.8537 40.7573H67.242L66.284 38.454ZM65.5026 36.5597L63.7945 32.4395L62.0863 36.5597H65.5026Z" fill="#FCFCFC"/>
</svg>
